<svg width="161" height="38" viewBox="0 0 161 38" fill="none" xmlns="http://www.w3.org/2000/svg">
<path d="M64.0244 8.44922C56.0868 8.44922 49.6543 14.388 49.6543 22.8361C49.6543 30.9127 55.399 37.1416 64.0244 37.223C72.832 37.3069 78.3946 30.7809 78.3946 22.8361C78.397 14.1388 71.962 8.44922 64.0244 8.44922ZM64.0244 29.5658C60.3049 29.5275 57.8292 26.6132 57.8292 22.8361C57.8292 18.8841 60.6021 16.1064 64.0244 16.1064C67.4468 16.1064 70.2197 18.7667 70.2197 22.8361C70.2197 26.5533 67.8207 29.6066 64.0244 29.5658Z" fill="#272A3D"/>
<path d="M94.6558 29.5658C90.9362 29.5275 88.4605 26.6132 88.4605 22.8361C88.4605 18.8841 91.2334 16.1064 94.6558 16.1064C96.9997 16.1064 99.2837 17.3551 100.489 19.4497L106.521 15.421C104.307 11.0496 100.022 8.44922 94.6558 8.44922C86.7206 8.44922 80.2856 14.388 80.2856 22.8361C80.2856 30.9127 86.0303 37.2015 94.6558 37.223C100.192 37.2374 104.329 34.4861 106.488 30.2537L100.504 26.1866C99.3651 28.2213 97.2082 29.5922 94.6558 29.5658Z" fill="#272A3D"/>
<path d="M136.009 8.94141V37.0825H127.743V33.4804C126.504 35.0981 125.078 36.3635 122.689 36.9459C121.462 37.2191 120.249 37.2719 119.267 37.2383C113.848 37.2383 109.901 32.4762 109.781 26.3864V8.94141H118.016V24.8214C118.016 27.508 120.194 29.6865 122.881 29.6865C125.567 29.6865 127.746 27.508 127.746 24.8214V8.94141H136.009Z" fill="#272A3D"/>
<path d="M12.2121 12.7656V25.0579H3.82149C1.82031 25.0579 0.200195 23.4354 0.200195 21.4366V16.3869C0.200195 14.3857 1.82271 12.7656 3.82149 12.7656H12.2121Z" fill="#1A847C"/>
<path d="M24.1998 0.494584V12.7677H12.2119V4.32918C12.2119 2.21056 13.9279 0.492188 16.0465 0.492188H24.1998V0.494584Z" fill="#E95D53"/>
<path d="M24.1998 27.6613V37.3509H16.4348C14.1028 37.3509 12.2119 35.4599 12.2119 33.128V25.0586H21.7001L24.1998 27.6613Z" fill="#5958EF"/>
<path d="M42.1413 5.33732C38.8387 2.08271 34.2205 0.378708 28.9719 0.493746H24.2002V12.7668H32.6722C34.6734 12.7668 36.2935 14.3893 36.2935 16.3881V21.4378C36.2935 23.439 34.671 25.0591 32.6722 25.0591H26.6759L24.2002 27.6618V37.3514H28.9719C38.8963 37.6438 47.2844 30.8541 47.4019 18.9214C47.3012 13.1 45.3384 8.48887 42.1413 5.33732Z" fill="#272A3D"/>
<path d="M12.2119 12.7656V25.0579H21.7001L24.1998 27.6606V12.7656H12.2119Z" fill="#272A3D"/>
<path d="M152.989 17.6781L159.515 16.0076C159.515 16.0076 158.691 10.8118 153.533 9.05503C152.711 8.77463 147.221 7.26955 142.833 10.5314C142.435 10.8285 139.588 13.1892 139.803 16.765C139.997 19.9884 141.215 22.7278 145.687 24.6882C146.396 24.9997 149.816 26.1453 150.435 26.4641C151.638 27.0848 152.426 27.9212 151.784 29.388C151.082 30.9937 148.599 30.6701 147.628 30.1836C146.658 29.6971 145.802 28.3574 145.569 27.3676L138.967 29.1531C138.967 29.1531 139.238 34.6677 145.668 36.7863C147.365 37.3447 153.454 37.8552 156.874 35.1159C160.294 32.3765 160.215 29.2705 160.196 27.8925C160.177 26.5144 159.225 23.116 156.098 21.5031C152.97 19.8902 149.581 19.0178 148.671 18.3851C147.758 17.7548 147.513 16.602 148.107 15.8111C148.699 15.025 150.118 14.8501 150.943 15.1712C151.765 15.4948 152.378 15.9214 152.989 17.6781Z" fill="#272A3D"/>
</svg>
