<svg width="68" height="52" viewBox="0 0 68 52" fill="none" xmlns="http://www.w3.org/2000/svg">
    <path d="M5.3057 10.0905C-7.42832 24.4619 4.33127 46.5364 24.2999 48.9117C41.8523 50.9997 57.4184 45.4276 64.9712 36.6687C71.5205 29.0737 67.2092 11.6034 54.3554 11.4853C22.2668 13.1048 22.5079 -5.09708 5.3057 10.0905Z" fill="#1A847C" fill-opacity="0.1"/>
    <path d="M39.1035 12.3464L57.383 15.8437C59.2274 16.1966 60.4364 17.9778 60.0837 19.8222L54.8375 47.2415C54.4846 49.0858 52.7034 50.2949 50.8591 49.942L32.5796 46.4447C30.7351 46.0917 29.5262 44.3106 29.8791 42.4661L35.1251 15.0469C35.478 13.2026 37.2592 11.9935 39.1035 12.3464Z" fill="white" stroke="#C4C9E6" stroke-width="2.03529"/>
    <path d="M46.3008 25.2059L37.161 23.4572C36.6757 23.3643 36.2069 23.6825 36.1141 24.1679C36.0212 24.6532 36.3394 25.122 36.8248 25.2148L45.9645 26.9635C46.4499 27.0564 46.9186 26.7382 47.0115 26.2529C47.1043 25.7675 46.7861 25.2988 46.3008 25.2059Z" fill="#CCC9E0"/>
    <path d="M49.8759 17.9448L44.9545 17.0032C44.6633 16.9475 44.3821 17.1384 44.3264 17.4296L44.3264 17.4296C44.2706 17.7209 44.4616 18.0021 44.7528 18.0578L49.6742 18.9994C49.9654 19.0551 50.2466 18.8642 50.3024 18.573C50.3581 18.2818 50.1672 18.0006 49.8759 17.9448Z" fill="#87BDBD"/>
    <path d="M43.6847 31.2611L35.9511 29.7814C35.4657 29.6886 34.997 30.0067 34.9041 30.4921C34.8113 30.9775 35.1294 31.4462 35.6148 31.5391L43.3484 33.0187C43.8338 33.1116 44.3025 32.7934 44.3954 32.308C44.4883 31.8227 44.1701 31.3539 43.6847 31.2611Z" fill="#CCC9E0"/>
    <path d="M45.5395 34.896L35.3451 32.9455C34.8598 32.8526 34.391 33.1708 34.2982 33.6562C34.2053 34.1415 34.5235 34.6103 35.0088 34.7031L45.2032 36.6536C45.6885 36.7465 46.1573 36.4283 46.2501 35.9429C46.343 35.4576 46.0248 34.9888 45.5395 34.896Z" fill="#CCC9E0"/>
    <path d="M52.0476 43.1339L33.9402 39.6695C33.4735 39.5802 33.0228 39.8861 32.9335 40.3528C32.8442 40.8195 33.1502 41.2702 33.6169 41.3595L51.7242 44.824C52.1909 44.9133 52.6416 44.6073 52.7309 44.1406C52.8202 43.6739 52.5143 43.2232 52.0476 43.1339Z" fill="#CCC9E0"/>
    <path d="M48.3254 44.9244L33.1152 42.0143C32.8485 41.9632 32.591 42.1381 32.5399 42.4047C32.4889 42.6714 32.6637 42.929 32.9304 42.98L48.1406 45.8901C48.4073 45.9412 48.6649 45.7663 48.7159 45.4997C48.7669 45.233 48.5921 44.9754 48.3254 44.9244Z" fill="#CCC9E0"/>
    <path d="M48.1555 28.8408L36.5551 26.6213C36.0697 26.5284 35.601 26.8466 35.5081 27.3319C35.4153 27.8173 35.7334 28.286 36.2188 28.3789L47.8192 30.5984C48.3046 30.6913 48.7733 30.3731 48.8662 29.8877C48.9591 29.4024 48.6409 28.9336 48.1555 28.8408Z" fill="#CCC9E0"/>
    <path d="M55.2656 26.9158L55.2656 26.9158C54.8773 26.8415 54.5023 27.096 54.428 27.4843L54.3607 27.8358C54.2864 28.2241 54.541 28.5991 54.9293 28.6734L54.9293 28.6734C55.3176 28.7477 55.6926 28.4932 55.7668 28.1049L55.8341 27.7533C55.9084 27.365 55.6538 26.9901 55.2656 26.9158Z" fill="#9691B7"/>
    <path d="M53.3304 26.5448L52.6274 26.4103C52.142 26.3175 51.6733 26.6357 51.5804 27.121C51.4875 27.6064 51.8057 28.0751 52.2911 28.168L52.9941 28.3025C53.4795 28.3954 53.9482 28.0772 54.0411 27.5918C54.134 27.1065 53.8158 26.6377 53.3304 26.5448Z" fill="#9691B7"/>
    <path d="M54.4846 30.0443L52.3754 29.6408C51.89 29.5479 51.4213 29.8661 51.3284 30.3515C51.2356 30.8368 51.5538 31.3056 52.0391 31.3984L54.1483 31.802C54.6336 31.8948 55.1024 31.5767 55.1953 31.0913C55.2881 30.606 54.9699 30.1372 54.4846 30.0443Z" fill="#9691B7"/>
    <path d="M53.8781 33.2123L51.769 32.8088C51.2836 32.7159 50.8149 33.0341 50.722 33.5194C50.6291 34.0048 50.9473 34.4735 51.4327 34.5664L53.5418 34.97C54.0272 35.0628 54.4959 34.7446 54.5888 34.2593C54.6817 33.7739 54.3635 33.3052 53.8781 33.2123Z" fill="#9691B7"/>
    <path d="M53.2725 36.372L49.7572 35.6994C49.2719 35.6065 48.8031 35.9247 48.7103 36.4101C48.6174 36.8954 48.9356 37.3642 49.421 37.457L52.9362 38.1296C53.4216 38.2225 53.8903 37.9043 53.9832 37.4189C54.0761 36.9336 53.7579 36.4648 53.2725 36.372Z" fill="#9691B7"/>
    <path d="M37.9252 18.1141C37.87 18.1035 37.8183 18.1049 37.7703 18.1185C37.7235 18.1322 37.6815 18.1569 37.644 18.1924C37.6068 18.2267 37.5749 18.2713 37.5484 18.3263C37.5231 18.3815 37.5035 18.4452 37.4898 18.5173C37.471 18.6151 37.4666 18.701 37.4765 18.775C37.4879 18.8479 37.5159 18.9074 37.5605 18.9533C37.6052 18.9992 37.6674 19.0298 37.7471 19.045C37.8039 19.0559 37.861 19.0602 37.9189 19.0579C37.978 19.0558 38.0427 19.0495 38.1127 19.0389L38.0657 19.2842C38.0007 19.2971 37.9374 19.3037 37.8758 19.3039C37.8144 19.3042 37.7469 19.2973 37.6736 19.2832C37.5319 19.2561 37.4204 19.2047 37.3386 19.1291C37.2586 19.0523 37.2067 18.957 37.1831 18.843C37.1599 18.7278 37.1617 18.5993 37.1888 18.4577C37.2088 18.3534 37.2412 18.2608 37.286 18.18C37.331 18.0978 37.3868 18.0304 37.4529 17.9776C37.5202 17.9251 37.5973 17.8891 37.6838 17.8696C37.7715 17.8504 37.8675 17.8508 37.9718 17.8707C38.0401 17.8838 38.1067 17.9058 38.1714 17.9369C38.2377 17.967 38.2996 18.0028 38.3571 18.0445L38.217 18.264C38.1702 18.2297 38.122 18.1984 38.0728 18.1703C38.0246 18.1424 37.9755 18.1237 37.9252 18.1141ZM38.6135 19.443L38.3256 19.388L38.6065 17.9201L38.8943 17.9751L38.6135 19.443ZM39.4038 18.5011L39.2019 19.5556L38.9142 19.5006L39.1159 18.446L39.4038 18.5011ZM39.3399 18.0604C39.3823 18.0685 39.4171 18.0858 39.444 18.1123C39.4713 18.1376 39.4797 18.1772 39.4694 18.2313C39.4593 18.2841 39.4368 18.3178 39.402 18.3325C39.3672 18.3472 39.3285 18.3505 39.286 18.3424C39.2422 18.334 39.2068 18.3166 39.1799 18.29C39.1542 18.2638 39.1463 18.2242 39.1565 18.1714C39.1669 18.1173 39.1887 18.0835 39.2219 18.0699C39.2568 18.0551 39.2962 18.052 39.3399 18.0604ZM40.3069 18.6538C40.4202 18.6755 40.5051 18.7238 40.5616 18.7986C40.6182 18.8722 40.6335 18.9766 40.6076 19.1118L40.4761 19.7994L40.1884 19.7444L40.3062 19.1282C40.3208 19.0522 40.318 18.993 40.2982 18.9505C40.2786 18.9067 40.2391 18.8791 40.1798 18.8678C40.0922 18.851 40.0266 18.8698 39.9829 18.9242C39.9394 18.9773 39.9069 19.0598 39.8854 19.1718L39.7905 19.6682L39.5026 19.6132L39.7045 18.5586L39.9246 18.6007L39.9375 18.7433L39.9528 18.7463C39.9829 18.7146 40.0168 18.6911 40.0544 18.6756C40.0924 18.6588 40.1329 18.6492 40.1761 18.6468C40.2195 18.6431 40.2632 18.6455 40.3069 18.6538ZM41.2616 18.8565L41.0599 19.9111L40.7721 19.856L40.9739 18.8015L41.2616 18.8565ZM41.1978 18.4158C41.2404 18.424 41.275 18.4413 41.3019 18.4678C41.3292 18.493 41.3376 18.5327 41.3272 18.5868C41.3172 18.6396 41.2947 18.6733 41.2599 18.688C41.2251 18.7027 41.1864 18.706 41.1438 18.6978C41.1 18.6895 41.0647 18.672 41.0378 18.6455C41.0121 18.6192 41.0044 18.5797 41.0144 18.5269C41.0248 18.4728 41.0466 18.439 41.0798 18.4253C41.1148 18.4106 41.154 18.4075 41.1978 18.4158ZM41.7857 20.07C41.6814 20.05 41.5961 20.0144 41.5298 19.963C41.4639 19.9103 41.4192 19.8404 41.3958 19.7531C41.3724 19.6659 41.3728 19.5598 41.3967 19.4349C41.4213 19.3062 41.4632 19.2054 41.5226 19.1327C41.5819 19.0599 41.6538 19.0116 41.7385 18.9878C41.8244 18.9642 41.9183 18.9621 42.0199 18.9816C42.092 18.9954 42.1532 19.0144 42.2033 19.0387C42.2547 19.0632 42.2985 19.0889 42.3347 19.1159L42.2072 19.3217C42.1655 19.2951 42.1259 19.2721 42.0881 19.2529C42.0517 19.2339 42.0143 19.2208 41.9756 19.2134C41.9255 19.2038 41.8812 19.208 41.843 19.226C41.8052 19.2428 41.7732 19.2734 41.7473 19.3179C41.7231 19.3613 41.7041 19.4184 41.6905 19.4892C41.6773 19.5587 41.6745 19.6183 41.6824 19.6678C41.6918 19.7163 41.7111 19.7554 41.7401 19.785C41.7693 19.8133 41.8078 19.832 41.8555 19.8411C41.916 19.8527 41.971 19.8552 42.0203 19.8486C42.0698 19.8407 42.1193 19.8268 42.1683 19.8068L42.1214 20.0521C42.0723 20.0721 42.022 20.0832 41.971 20.0854C41.9209 20.0892 41.859 20.084 41.7857 20.07ZM42.9913 19.1654C43.1329 19.1925 43.235 19.2441 43.298 19.3202C43.3623 19.3953 43.3824 19.4959 43.3583 19.6221L43.2238 20.3251L43.023 20.2867L42.9943 20.133L42.9866 20.1316C42.9498 20.1632 42.913 20.1882 42.8761 20.2065C42.8406 20.2251 42.8012 20.2356 42.7579 20.238C42.7159 20.242 42.6651 20.2383 42.6058 20.2269C42.5441 20.2151 42.4903 20.1928 42.4446 20.16C42.4003 20.1262 42.3686 20.0821 42.3496 20.0277C42.331 19.9721 42.3289 19.9063 42.3435 19.8303C42.3649 19.7183 42.42 19.6434 42.5086 19.6056C42.5974 19.5666 42.721 19.5595 42.8789 19.5844L43.0636 19.6137L43.0725 19.5674C43.0831 19.512 43.0761 19.4686 43.0513 19.4372C43.0279 19.406 42.9904 19.3855 42.9389 19.3757C42.8876 19.3658 42.8358 19.3639 42.784 19.37C42.7323 19.3748 42.6799 19.3835 42.6268 19.396L42.5694 19.1828C42.6317 19.164 42.6987 19.1528 42.7701 19.1491C42.8429 19.1457 42.9166 19.1511 42.9913 19.1654ZM42.9187 19.7642C42.8255 19.749 42.7579 19.7535 42.7159 19.7775C42.6739 19.8015 42.6482 19.8386 42.6385 19.8888C42.6303 19.9326 42.637 19.9666 42.6591 19.9908C42.6815 20.0138 42.7131 20.0292 42.7544 20.0371C42.8162 20.0489 42.8717 20.0409 42.9211 20.0129C42.9707 19.9837 43.002 19.9356 43.0149 19.8687L43.0314 19.7818L42.9187 19.7642ZM43.8062 20.4366L43.5183 20.3815L43.7993 18.9136L44.087 18.9686L43.8062 20.4366ZM45.5181 20.3677C45.5026 20.4488 45.469 20.5158 45.4175 20.5687C45.3662 20.6215 45.2992 20.6575 45.2169 20.6764C45.136 20.6943 45.0414 20.6929 44.9332 20.6722C44.8856 20.6631 44.8393 20.6509 44.7941 20.6356C44.7503 20.6205 44.7083 20.6031 44.668 20.5834C44.6292 20.5627 44.5929 20.5397 44.559 20.5145L44.6111 20.2422C44.6714 20.2831 44.734 20.3224 44.7987 20.3602C44.8652 20.3969 44.933 20.4219 45.0027 20.4352C45.0503 20.4443 45.0895 20.4452 45.1203 20.4377C45.1523 20.4305 45.1769 20.4172 45.194 20.3977C45.2123 20.3786 45.2242 20.3548 45.2297 20.3265C45.2364 20.2917 45.2297 20.2598 45.21 20.2306C45.1915 20.2017 45.1643 20.1731 45.1282 20.1449C45.0925 20.1154 45.0512 20.0835 45.0044 20.0491C44.9752 20.0275 44.9439 20.0028 44.9105 19.9751C44.8773 19.9461 44.8463 19.9128 44.8175 19.8752C44.7901 19.8366 44.7698 19.7927 44.7567 19.7434C44.7433 19.6942 44.7428 19.638 44.7547 19.5749C44.7706 19.4925 44.8027 19.4259 44.8511 19.3751C44.901 19.3233 44.9638 19.2885 45.0393 19.2709C45.1159 19.2536 45.2019 19.254 45.2972 19.2723C45.3693 19.286 45.436 19.3075 45.4972 19.3365C45.5596 19.3658 45.6232 19.4027 45.6881 19.4472L45.5499 19.657C45.4919 19.6191 45.439 19.5884 45.3915 19.5646C45.344 19.5408 45.2939 19.5239 45.241 19.5138C45.2049 19.5069 45.1729 19.5068 45.1449 19.5134C45.117 19.5201 45.0939 19.5324 45.0758 19.5502C45.0591 19.5684 45.0479 19.5916 45.0424 19.62C45.0363 19.6521 45.0407 19.6817 45.0556 19.7085C45.0707 19.7341 45.0957 19.7609 45.1303 19.7889C45.165 19.8169 45.2086 19.8506 45.2612 19.89C45.3255 19.937 45.3788 19.9833 45.4208 20.0287C45.4641 20.0744 45.4945 20.1242 45.5123 20.1783C45.53 20.2324 45.532 20.2956 45.5181 20.3677ZM46.1621 19.7941L45.9602 20.8487L45.6725 20.7936L45.8742 19.739L46.1621 19.7941ZM46.0982 19.3534C46.1406 19.3615 46.1754 19.3789 46.2023 19.4054C46.2296 19.4306 46.238 19.4703 46.2277 19.5243C46.2175 19.5771 46.1951 19.6109 46.1601 19.6256C46.1253 19.6403 46.0866 19.6435 46.0442 19.6354C46.0005 19.627 45.9651 19.6096 45.938 19.5831C45.9124 19.5568 45.9046 19.5173 45.9146 19.4645C45.925 19.4104 45.9468 19.3765 45.9802 19.3629C46.015 19.3482 46.0544 19.345 46.0982 19.3534ZM46.8083 19.8977C46.8727 19.91 46.9281 19.934 46.9747 19.9696C47.0213 20.0052 47.0577 20.0522 47.0839 20.1106L47.0916 20.1121L47.1407 19.9813L47.384 20.0279L47.1818 21.0844C47.1626 21.1848 47.1266 21.2654 47.0737 21.3261C47.022 21.3869 46.9534 21.4272 46.8683 21.4469C46.7828 21.468 46.6822 21.4673 46.5663 21.4451C46.4916 21.4309 46.4228 21.4131 46.3602 21.3916C46.2989 21.3705 46.2401 21.3428 46.184 21.308L46.228 21.0781C46.2684 21.1045 46.3092 21.1277 46.3509 21.1477C46.3935 21.1692 46.4374 21.1869 46.4828 21.2009C46.5292 21.2165 46.5764 21.2288 46.6238 21.238C46.6986 21.2522 46.7578 21.2429 46.8015 21.2099C46.8465 21.1771 46.8765 21.1208 46.8918 21.0409L46.8959 21.0197C46.9001 20.9978 46.905 20.9754 46.9108 20.9525C46.9179 20.9298 46.9237 20.9096 46.9284 20.8918L46.9207 20.8903C46.8741 20.9388 46.8233 20.9704 46.7684 20.9853C46.7135 21.0001 46.6544 21.0015 46.5913 20.9895C46.4665 20.9656 46.3776 20.8992 46.3251 20.7904C46.2741 20.6805 46.2649 20.5399 46.2976 20.3687C46.3198 20.2528 46.3548 20.1573 46.4024 20.0824C46.4505 20.0061 46.5088 19.9526 46.5774 19.9216C46.6476 19.8897 46.7246 19.8817 46.8083 19.8977ZM46.8544 20.1488C46.8092 20.1402 46.7689 20.1451 46.7334 20.1637C46.6993 20.1812 46.6699 20.2123 46.6455 20.257C46.6224 20.3006 46.6041 20.3579 46.5906 20.4287C46.5704 20.5343 46.572 20.6167 46.5954 20.6759C46.6189 20.7338 46.6662 20.7695 46.7369 20.7831C46.7744 20.7902 46.8074 20.7919 46.8361 20.788C46.8651 20.7829 46.8901 20.771 46.911 20.7523C46.9335 20.7326 46.9527 20.7055 46.9687 20.6712C46.9845 20.6369 46.9973 20.594 47.0072 20.5424L47.0139 20.5077C47.0285 20.4317 47.0323 20.3691 47.0258 20.3198C47.0193 20.2705 47.0019 20.2324 46.9736 20.2057C46.9456 20.1776 46.9059 20.1587 46.8544 20.1488ZM48.2874 20.1807C48.4006 20.2024 48.4856 20.2507 48.542 20.3255C48.5986 20.3991 48.6141 20.5035 48.5883 20.6387L48.4567 21.3262L48.1689 21.2712L48.2867 20.6551C48.3013 20.5791 48.2986 20.5199 48.2788 20.4774C48.2591 20.4336 48.2197 20.406 48.1604 20.3947C48.0728 20.3779 48.0071 20.3967 47.9633 20.4511C47.9199 20.5042 47.8873 20.5867 47.8659 20.6987L47.7709 21.1951L47.4832 21.1401L47.6849 20.0855L47.9051 20.1276L47.9179 20.2702L47.9334 20.2732C47.9635 20.2415 47.9972 20.218 48.035 20.2025C48.0728 20.1857 48.1135 20.1761 48.1566 20.1737C48.2 20.17 48.2436 20.1724 48.2874 20.1807ZM49.2421 20.3834L49.0404 21.4381L48.7525 21.3829L48.9544 20.3283L49.2421 20.3834ZM49.1782 19.9427C49.2208 19.9509 49.2554 19.9682 49.2825 19.9947C49.3098 20.0199 49.318 20.0596 49.3078 20.1137C49.2976 20.1665 49.2751 20.2002 49.2403 20.2149C49.2055 20.2296 49.1668 20.2329 49.1244 20.2247C49.0806 20.2163 49.0451 20.1989 49.0182 20.1724C48.9925 20.1461 48.9848 20.1066 48.9948 20.0538C49.0052 19.9997 49.027 19.9659 49.0604 19.9522C49.0952 19.9375 49.1345 19.9344 49.1782 19.9427ZM50.0847 20.7689L49.8356 20.7212L49.6752 21.5594L49.3875 21.5044L49.5479 20.6661L49.3894 20.6358L49.416 20.4968L49.5892 20.4498L49.604 20.3726C49.6212 20.2824 49.6493 20.2157 49.6884 20.1725C49.7288 20.1282 49.7788 20.101 49.838 20.091C49.8987 20.0812 49.9669 20.0836 50.0429 20.0981C50.0995 20.109 50.1496 20.1232 50.1929 20.1409C50.2376 20.1587 50.2729 20.1762 50.2991 20.1932L50.1853 20.3897C50.1648 20.3791 50.1419 20.3687 50.1173 20.3586C50.0927 20.3473 50.0636 20.3384 50.0302 20.332C49.9903 20.3243 49.9583 20.3309 49.9344 20.3517C49.9117 20.3727 49.8968 20.4019 49.8896 20.4392L49.8771 20.5049L50.1261 20.5526L50.0847 20.7689ZM50.5782 20.639L50.3763 21.6936L50.0886 21.6385L50.2903 20.584L50.5782 20.639ZM50.5143 20.1983C50.5567 20.2065 50.5915 20.2238 50.6185 20.2503C50.6457 20.2755 50.6542 20.3152 50.6438 20.3693C50.6336 20.4221 50.6112 20.4558 50.5763 20.4705C50.5414 20.4852 50.5027 20.4885 50.4604 20.4803C50.4166 20.472 50.3812 20.4545 50.3542 20.428C50.3285 20.4017 50.3207 20.3622 50.3308 20.3094C50.3411 20.2553 50.3629 20.2215 50.3964 20.2078C50.4312 20.1931 50.4706 20.19 50.5143 20.1983ZM51.1034 21.8527C50.9992 21.8329 50.9139 21.7972 50.8476 21.7458C50.7816 21.6931 50.737 21.6231 50.7136 21.5358C50.6902 21.4486 50.6906 21.3426 50.7145 21.2177C50.7391 21.0889 50.7811 20.9882 50.8404 20.9154C50.8996 20.8427 50.9716 20.7944 51.0563 20.7706C51.1421 20.7469 51.236 20.7449 51.3377 20.7644C51.4098 20.7781 51.471 20.7972 51.5211 20.8214C51.5724 20.8459 51.6162 20.8717 51.6525 20.8986L51.525 21.1045C51.4833 21.0778 51.4437 21.0549 51.4059 21.0357C51.3695 21.0167 51.3321 21.0035 51.2934 20.9961C51.2432 20.9865 51.1989 20.9907 51.1608 21.0088C51.123 21.0256 51.091 21.0562 51.0651 21.1006C51.0408 21.144 51.0219 21.2011 51.0083 21.2719C50.9951 21.3415 50.9923 21.401 51.0002 21.4506C51.0097 21.4991 51.0289 21.5381 51.0579 21.5677C51.0873 21.596 51.1256 21.6148 51.1733 21.6238C51.2338 21.6354 51.2888 21.6378 51.338 21.6313C51.3876 21.6234 51.437 21.6095 51.4863 21.5897L51.4393 21.835C51.3901 21.8548 51.34 21.8659 51.2888 21.8682C51.2387 21.8719 51.177 21.8668 51.1034 21.8527ZM52.3091 20.9482C52.4506 20.9753 52.553 21.0269 52.6158 21.103C52.6801 21.178 52.7003 21.2786 52.6761 21.4048L52.5416 22.1079L52.3407 22.0694L52.3121 21.9159L52.3043 21.9143C52.2676 21.9459 52.2308 21.9711 52.1939 21.9894C52.1584 22.0078 52.119 22.0184 52.0757 22.0208C52.0337 22.0247 51.9829 22.021 51.9238 22.0098C51.8619 21.9978 51.8081 21.9755 51.7624 21.9428C51.718 21.909 51.6866 21.8649 51.6676 21.8105C51.6488 21.7548 51.6467 21.689 51.6612 21.613C51.6827 21.501 51.7377 21.4261 51.8264 21.3885C51.9152 21.3493 52.0388 21.3422 52.1969 21.3672L52.3814 21.3966L52.3903 21.3501C52.4009 21.2948 52.3938 21.2514 52.3692 21.22C52.3457 21.1888 52.3084 21.1683 52.2569 21.1584C52.2053 21.1486 52.1536 21.1467 52.1018 21.1528C52.0501 21.1576 51.9976 21.1662 51.9445 21.1788L51.8872 20.9656C51.9496 20.9468 52.0165 20.9356 52.0879 20.9319C52.1607 20.9285 52.2343 20.9339 52.3091 20.9482ZM52.2365 21.5469C52.1433 21.5318 52.0757 21.5362 52.0337 21.5603C51.9918 21.5842 51.966 21.6213 51.9563 21.6716C51.9481 21.7154 51.9549 21.7493 51.9769 21.7736C51.9992 21.7966 52.0309 21.8119 52.0722 21.8198C52.1339 21.8316 52.1895 21.8237 52.2389 21.7957C52.2887 21.7666 52.3198 21.7184 52.3326 21.6514L52.3493 21.5645L52.2365 21.5469ZM53.6404 21.2049C53.7537 21.2266 53.8386 21.2749 53.8951 21.3498C53.9517 21.4233 53.9672 21.5278 53.9411 21.6628L53.8096 22.3506L53.5219 22.2955L53.6397 21.6793C53.6543 21.6034 53.6517 21.5441 53.6317 21.5016C53.6121 21.4578 53.5726 21.4302 53.5135 21.4189C53.4259 21.4022 53.3601 21.4208 53.3164 21.4753C53.2729 21.5283 53.2404 21.6109 53.2189 21.7229L53.124 22.2194L52.8363 22.1643L53.038 21.1097L53.2581 21.1518L53.271 21.2944L53.2865 21.2973C53.3165 21.2657 53.3503 21.2422 53.3879 21.2267C53.4259 21.2099 53.4665 21.2003 53.5096 21.1979C53.553 21.1942 53.5967 21.1965 53.6404 21.2049ZM54.5308 22.5085C54.4265 22.4886 54.3412 22.4529 54.2749 22.4014C54.2088 22.3488 54.1641 22.2788 54.1409 22.1916C54.1175 22.1044 54.1177 21.9983 54.1416 21.8735C54.1662 21.7448 54.2083 21.644 54.2675 21.5712C54.3268 21.4984 54.3989 21.4502 54.4835 21.4263C54.5695 21.4027 54.6632 21.4006 54.765 21.4201C54.8371 21.4338 54.8981 21.4528 54.9482 21.4771C54.9996 21.5017 55.0434 21.5274 55.0796 21.5543L54.9521 21.7602C54.9106 21.7335 54.8709 21.7106 54.8332 21.6915C54.7968 21.6725 54.7592 21.6593 54.7207 21.6519C54.6704 21.6422 54.6263 21.6465 54.5881 21.6646C54.5501 21.6813 54.5183 21.7119 54.4924 21.7564C54.4682 21.7998 54.4492 21.8568 54.4356 21.9276C54.4223 21.9973 54.4196 22.0567 54.4274 22.1063C54.4369 22.1548 54.456 22.1939 54.4851 22.2234C54.5144 22.2517 54.5529 22.2704 54.6006 22.2795C54.6611 22.2911 54.7159 22.2936 54.7654 22.2871C54.8148 22.2792 54.8642 22.2653 54.9134 22.2454L54.8665 22.4907C54.8172 22.5106 54.7671 22.5217 54.7159 22.5239C54.6658 22.5276 54.6041 22.5225 54.5308 22.5085ZM55.7378 21.6062C55.8356 21.625 55.9158 21.6596 55.9782 21.7103C56.0419 21.7611 56.0862 21.8256 56.1113 21.9039C56.1365 21.9822 56.1391 22.0727 56.1194 22.1758L56.0927 22.3149L55.4128 22.1847C55.4 22.2663 55.4116 22.3346 55.4478 22.3896C55.4853 22.4448 55.5445 22.4802 55.6256 22.4958C55.6938 22.5088 55.757 22.5141 55.8148 22.5118C55.8729 22.5083 55.9342 22.4981 55.9989 22.481L55.9564 22.7031C55.8999 22.7191 55.8417 22.7272 55.7814 22.7278C55.7223 22.7299 55.6522 22.723 55.5711 22.7075C55.4656 22.6873 55.3759 22.6502 55.3022 22.596C55.2287 22.5407 55.1763 22.4686 55.1454 22.3797C55.1142 22.2911 55.1102 22.1861 55.1334 22.0652C55.1571 21.9415 55.1972 21.8432 55.254 21.7699C55.3123 21.6957 55.3826 21.645 55.4652 21.6181C55.5477 21.5912 55.6386 21.5872 55.7378 21.6062ZM55.7005 21.8112C55.6451 21.8007 55.5954 21.8098 55.5512 21.8388C55.5081 21.8678 55.4763 21.9199 55.4552 21.9946L55.859 22.0718C55.8671 22.0293 55.8665 21.9899 55.8576 21.9535C55.8498 21.9173 55.8329 21.8867 55.8071 21.8617C55.7811 21.8367 55.7455 21.8198 55.7005 21.8112Z" fill="#87BDBD"/>
    <path d="M9.88861 11.7159L28.4345 10.1605C30.3057 10.0036 31.9499 11.3933 32.107 13.2646L34.44 41.0836C34.5968 42.9548 33.2071 44.599 31.3359 44.7558L12.79 46.3112C10.9187 46.4681 9.27452 45.0783 9.11759 43.2071L6.78455 15.3883C6.6276 13.517 8.01735 11.8728 9.88861 11.7159Z" fill="white" stroke="#C4C9E6" stroke-width="2.03529"/>
    <path d="M29.3357 37.4572C28.1053 37.5604 27.1905 38.6427 27.2936 39.8732C27.3968 41.1036 28.4791 42.0185 29.7097 41.9153C30.9402 41.8121 31.8549 40.7297 31.7517 39.4993C31.6487 38.2689 30.5663 37.3539 29.3357 37.4572ZM29.1704 40.8381L27.9623 39.8171L28.2504 39.4765L29.1175 40.2073L30.6674 38.3735L31.0082 38.6637L29.1704 40.8381Z" fill="#1A847C"/>
    <path d="M24.5413 38.6817L12.0584 39.7286C11.763 39.7534 11.5435 40.013 11.5683 40.3084C11.5931 40.6039 11.8527 40.8233 12.1481 40.7985L24.631 39.7517C24.9265 39.7269 25.1459 39.4673 25.1211 39.1718C25.0963 38.8763 24.8367 38.6569 24.5413 38.6817Z" fill="#9691B7" fill-opacity="0.5"/>
    <path d="M22.7281 40.6275L12.0285 41.5248C11.8316 41.5413 11.6853 41.7144 11.7018 41.9113C11.7183 42.1083 11.8914 42.2546 12.0884 42.2381L22.7879 41.3408C22.9849 41.3242 23.1312 41.1512 23.1147 40.9542C23.0982 40.7572 22.9251 40.6109 22.7281 40.6275Z" fill="#9691B7" fill-opacity="0.5"/>
    <path d="M30.1843 31.0237L16.2748 32.1902C15.8809 32.2232 15.5883 32.5694 15.6213 32.9633L15.6213 32.9633C15.6544 33.3573 16.0005 33.6498 16.3945 33.6168L30.3039 32.4503C30.6979 32.4172 30.9905 32.0711 30.9574 31.6771C30.9244 31.2832 30.5782 30.9906 30.1843 31.0237Z" fill="#9691B7"/>
    <path d="M29.7356 25.676L15.8261 26.8425C15.4321 26.8756 15.1396 27.2217 15.1726 27.6156L15.1726 27.6157C15.2057 28.0096 15.5518 28.3022 15.9457 28.2691L29.8552 27.1026C30.2491 27.0696 30.5417 26.7234 30.5087 26.3295C30.4756 25.9355 30.1295 25.643 29.7356 25.676Z" fill="#9691B7"/>
    <path d="M29.2878 20.3244L15.3783 21.491C14.9844 21.524 14.6918 21.8701 14.7249 22.2641L14.7249 22.2641C14.7579 22.658 15.104 22.9506 15.498 22.9176L29.4074 21.7511C29.8014 21.718 30.094 21.3719 30.0609 20.9779C30.0279 20.584 29.6818 20.2914 29.2878 20.3244Z" fill="#9691B7"/>
    <path d="M23.7313 22.5882L15.1716 23.306C14.9746 23.3225 14.8283 23.4956 14.8449 23.6926C14.8614 23.8896 15.0344 24.0359 15.2314 24.0193L23.7911 23.3015C23.9881 23.285 24.1343 23.1119 24.1178 22.9149C24.1013 22.7179 23.9282 22.5716 23.7313 22.5882Z" fill="#9691B7"/>
    <path d="M9.77715 17.852C9.76076 17.6567 9.9045 17.4846 10.0996 17.4658L20.1429 16.5017C20.3412 16.4826 20.5171 16.6294 20.5336 16.828C20.5501 17.0233 20.4063 17.1954 20.2113 17.2141L10.168 18.1783C9.96955 18.1974 9.7938 18.0506 9.77715 17.852Z" fill="#9691B7" fill-opacity="0.5"/>
    <path d="M24.1785 27.9358L15.6189 28.6537C15.4219 28.6702 15.2756 28.8433 15.2921 29.0402C15.3086 29.2372 15.4817 29.3835 15.6787 29.367L24.2383 28.6491C24.4353 28.6326 24.5816 28.4595 24.5651 28.2626C24.5486 28.0656 24.3755 27.9193 24.1785 27.9358Z" fill="#9691B7"/>
    <path d="M24.6277 33.2874L16.0681 34.0052C15.8711 34.0218 15.7248 34.1948 15.7413 34.3918C15.7579 34.5888 15.9309 34.7351 16.1279 34.7186L24.6876 34.0007C24.8845 33.9842 25.0308 33.8111 25.0143 33.6141C24.9978 33.4172 24.8247 33.2709 24.6277 33.2874Z" fill="#9691B7"/>
    <path d="M12.1365 21.4026L10.3532 21.5521C10.1563 21.5686 10.01 21.7417 10.0265 21.9387L10.176 23.722C10.1926 23.9189 10.3656 24.0652 10.5626 24.0487L12.3459 23.8991C12.5429 23.8826 12.6891 23.7095 12.6726 23.5126L12.5231 21.7293C12.5065 21.5323 12.3335 21.386 12.1365 21.4026Z" fill="#D0CDDF"/>
    <path d="M12.5857 26.7541L10.8025 26.9037C10.6055 26.9202 10.4592 27.0933 10.4757 27.2902L10.6253 29.0735C10.6418 29.2705 10.8149 29.4168 11.0118 29.4003L12.7951 29.2507C12.9921 29.2342 13.1384 29.0611 13.1218 28.8641L12.9723 27.0809C12.9558 26.8839 12.7827 26.7376 12.5857 26.7541Z" fill="#D0CDDF"/>
    <path d="M13.0047 31.7502L11.2214 31.8998C11.0244 31.9163 10.8781 32.0894 10.8947 32.2863L11.0442 34.0696C11.0607 34.2666 11.2338 34.4129 11.4308 34.3964L13.214 34.2468C13.411 34.2303 13.5573 34.0572 13.5408 33.8602L13.3912 32.077C13.3747 31.88 13.2016 31.7337 13.0047 31.7502Z" fill="#D0CDDF"/>
    <path d="M11.4852 23.3119L10.3682 22.3897L10.6354 22.0808L11.4373 22.7409L12.8761 21.0781L13.1913 21.3403L11.4852 23.3119Z" fill="#79749D"/>
    <path d="M11.9466 28.8276L10.8296 27.9054L11.0969 27.5964L11.8988 28.2566L13.3374 26.5938L13.6527 26.8559L11.9466 28.8276Z" fill="#79749D"/>
    <path d="M12.3656 33.8235L11.2485 32.9013L11.5158 32.5924L12.3178 33.2525L13.7564 31.5898L14.0717 31.8519L12.3656 33.8235Z" fill="#79749D"/>
    <path d="M9.99139 15.1594C10.1181 15.1481 10.2239 15.1545 10.309 15.1785C10.3939 15.2012 10.4594 15.2421 10.5055 15.3011C10.5515 15.3589 10.5786 15.4348 10.587 15.5288C10.5927 15.5928 10.5853 15.6501 10.5648 15.7006C10.5455 15.7497 10.5171 15.793 10.4797 15.8306C10.4434 15.8667 10.4034 15.8973 10.3595 15.9222L10.8252 16.4947L10.4961 16.5241L10.1153 16.0171L9.95661 16.0312L10.0045 16.5679L9.70871 16.5943L9.58398 15.1958L9.99139 15.1594ZM9.99152 15.4042L9.90141 15.4123L9.93512 15.7903L10.0311 15.7818C10.0964 15.7759 10.1486 15.764 10.1878 15.7461C10.227 15.7281 10.2545 15.7039 10.2702 15.6736C10.2858 15.6419 10.2918 15.6052 10.288 15.5634C10.2841 15.519 10.2705 15.4847 10.2473 15.4604C10.2252 15.4347 10.1928 15.4179 10.15 15.4098C10.1083 15.4004 10.0555 15.3985 9.99152 15.4042ZM11.3219 15.3527C11.4211 15.3439 11.5077 15.3552 11.5816 15.3868C11.6567 15.4183 11.7171 15.4682 11.7627 15.5365C11.8082 15.6048 11.8358 15.6912 11.8452 15.7957L11.8576 15.9367L11.1682 15.9982C11.1781 16.0802 11.208 16.1427 11.2579 16.1856C11.3091 16.2285 11.3759 16.2462 11.4581 16.2389C11.5274 16.2327 11.5895 16.2206 11.6444 16.2025C11.6993 16.1831 11.7555 16.1564 11.813 16.1223L11.833 16.3476C11.7833 16.3783 11.7294 16.4022 11.6717 16.4192C11.6154 16.4374 11.5461 16.4502 11.4638 16.4575C11.3567 16.4671 11.2603 16.4559 11.1746 16.4241C11.0887 16.3909 11.0186 16.336 10.9644 16.2592C10.9102 16.1824 10.8776 16.0827 10.8666 15.9599C10.8555 15.8346 10.8671 15.7289 10.9015 15.6429C10.9372 15.5555 10.991 15.4875 11.063 15.439C11.135 15.3904 11.2213 15.3617 11.3219 15.3527ZM11.3423 15.5602C11.2862 15.5652 11.2408 15.5876 11.2062 15.6276C11.1729 15.6674 11.1564 15.7261 11.1568 15.8038L11.5661 15.7672C11.5623 15.7242 11.551 15.6863 11.5323 15.6538C11.5149 15.6211 11.4903 15.5963 11.4586 15.5794C11.4268 15.5625 11.388 15.5561 11.3423 15.5602ZM12.5721 16.3587C12.4663 16.3681 12.3745 16.3572 12.2967 16.326C12.2188 16.2934 12.1566 16.2384 12.1103 16.161C12.0639 16.0835 12.0351 15.9814 12.0236 15.8548C12.012 15.7242 12.0247 15.6158 12.0618 15.5295C12.0989 15.4433 12.1548 15.3771 12.2297 15.331C12.3059 15.2847 12.3956 15.2569 12.4986 15.2477C12.5718 15.2412 12.6358 15.2428 12.6906 15.2524C12.7467 15.2618 12.796 15.2745 12.8382 15.2905L12.7721 15.5235C12.7248 15.5093 12.6803 15.4981 12.6388 15.4899C12.5985 15.4817 12.5588 15.4793 12.5197 15.4828C12.4687 15.4873 12.4274 15.5035 12.3957 15.5314C12.3637 15.5579 12.3416 15.5961 12.3289 15.6459C12.3175 15.6943 12.3149 15.7544 12.3214 15.8263C12.3275 15.8968 12.3412 15.9548 12.3625 16.0003C12.3848 16.0443 12.414 16.0766 12.4501 16.0971C12.486 16.1163 12.5282 16.1237 12.5765 16.1194C12.6379 16.1139 12.6913 16.1012 12.7369 16.0814C12.7824 16.0602 12.826 16.0333 12.8679 16.0006L12.8901 16.2494C12.8482 16.282 12.803 16.3065 12.7545 16.3227C12.7073 16.34 12.6465 16.352 12.5721 16.3587ZM14.0653 15.6648C14.0732 15.7536 14.0679 15.8337 14.0493 15.9051C14.0319 15.9764 14.0025 16.0383 13.9612 16.0907C13.9209 16.1416 13.8699 16.1824 13.8082 16.2129C13.7463 16.2421 13.6749 16.2603 13.594 16.2675C13.5194 16.2742 13.4493 16.2686 13.3831 16.2508C13.3183 16.2316 13.2609 16.2005 13.211 16.1576C13.161 16.1133 13.1199 16.0578 13.0875 15.9909C13.0566 15.9239 13.0371 15.846 13.0292 15.7572C13.0186 15.6384 13.0306 15.5366 13.0652 15.4519C13.0995 15.3659 13.154 15.2979 13.2286 15.2478C13.3031 15.1977 13.3939 15.1679 13.501 15.1584C13.6015 15.1494 13.6921 15.163 13.773 15.1992C13.8539 15.2355 13.9202 15.2927 13.9721 15.371C14.0236 15.448 14.0547 15.546 14.0653 15.6648ZM13.3269 15.7306C13.3332 15.8011 13.3457 15.8599 13.3643 15.907C13.3842 15.9526 13.4116 15.9863 13.4464 16.0082C13.4811 16.0288 13.5247 16.0368 13.5769 16.0321C13.6292 16.0275 13.6698 16.012 13.6991 15.9857C13.7296 15.958 13.7498 15.92 13.76 15.8717C13.7714 15.822 13.7739 15.7618 13.7676 15.6913C13.7614 15.6208 13.7482 15.5628 13.7283 15.5172C13.7099 15.4714 13.6831 15.4383 13.6485 15.4177C13.6137 15.3971 13.5702 15.3891 13.518 15.3938C13.441 15.4006 13.3872 15.4324 13.3568 15.4891C13.3274 15.5444 13.3174 15.6249 13.3269 15.7306ZM15.5129 14.9789C15.6342 14.9681 15.7285 14.9913 15.7955 15.0485C15.8635 15.1043 15.9038 15.2007 15.9159 15.3378L15.9782 16.0351L15.6863 16.0612L15.6307 15.4363C15.6237 15.3593 15.6055 15.303 15.576 15.2675C15.5465 15.2306 15.5042 15.2146 15.4494 15.2195C15.3724 15.2264 15.32 15.2587 15.2922 15.3165C15.2644 15.3742 15.2551 15.4547 15.2644 15.5578L15.3122 16.0945L15.0203 16.1206L14.9646 15.4957C14.9602 15.4448 14.9505 15.4029 14.9357 15.37C14.921 15.3371 14.9009 15.3132 14.8759 15.2983C14.8508 15.2821 14.82 15.2757 14.7834 15.2789C14.7298 15.2837 14.6887 15.3012 14.6598 15.3314C14.6308 15.3616 14.6122 15.4034 14.6039 15.4568C14.5955 15.5102 14.5946 15.5748 14.6014 15.6505L14.6463 16.1539L14.3544 16.18L14.2591 15.1105L14.4824 15.0906L14.5337 15.2242L14.5494 15.2228C14.5684 15.1843 14.5932 15.1524 14.6238 15.1273C14.6544 15.1009 14.6887 15.0807 14.727 15.0668C14.7664 15.0514 14.8063 15.0419 14.8469 15.0383C14.9252 15.0313 14.9929 15.0385 15.0502 15.0597C15.1072 15.0796 15.1525 15.1151 15.186 15.166L15.2115 15.1638C15.2392 15.106 15.2807 15.0622 15.336 15.0322C15.3924 15.0022 15.4515 14.9844 15.5129 14.9789ZM17.437 14.8073C17.5585 14.7965 17.6528 14.8197 17.7198 14.8769C17.7878 14.9327 17.8281 15.0291 17.8402 15.1662L17.9025 15.8635L17.6106 15.8895L17.5548 15.2647C17.548 15.1877 17.5299 15.1314 17.5003 15.0958C17.4708 15.059 17.4286 15.043 17.3737 15.0479C17.2967 15.0548 17.2443 15.0871 17.2165 15.1448C17.1887 15.2026 17.1794 15.2831 17.1887 15.3862L17.2365 15.9229L16.9446 15.9489L16.8889 15.3241C16.8843 15.2732 16.8746 15.2313 16.8599 15.1984C16.8451 15.1655 16.8252 15.1416 16.8003 15.1267C16.7751 15.1105 16.7443 15.104 16.7078 15.1073C16.6541 15.1121 16.613 15.1296 16.584 15.1598C16.5551 15.19 16.5365 15.2318 16.528 15.2852C16.5198 15.3386 16.5189 15.4032 16.5256 15.4789L16.5706 15.9823L16.2787 16.0083L16.1834 14.9389L16.4065 14.919L16.4581 15.0526L16.4737 15.0512C16.4925 15.0126 16.5175 14.9808 16.5481 14.9557C16.5787 14.9293 16.613 14.9091 16.6513 14.8952C16.6907 14.8798 16.7306 14.8703 16.7711 14.8667C16.8495 14.8597 16.9172 14.8668 16.9744 14.8881C17.0315 14.908 17.0767 14.9434 17.1103 14.9944L17.1358 14.9921C17.1634 14.9344 17.2049 14.8905 17.2603 14.8606C17.3167 14.8305 17.3756 14.8128 17.437 14.8073ZM18.5466 14.7084C18.6458 14.6995 18.7323 14.7109 18.8062 14.7424C18.8815 14.7739 18.9418 14.8238 18.9875 14.8921C19.033 14.9605 19.0605 15.0469 19.0698 15.1513L19.0823 15.2923L18.3929 15.3538C18.4028 15.4359 18.4327 15.4984 18.4826 15.5413C18.5338 15.5841 18.6006 15.6018 18.6829 15.5945C18.752 15.5883 18.8141 15.5762 18.8691 15.5582C18.924 15.5388 18.9803 15.5121 19.0378 15.478L19.0578 15.7032C19.0079 15.734 18.9541 15.7579 18.8964 15.7749C18.8401 15.7931 18.7708 15.8058 18.6885 15.8132C18.5815 15.8227 18.4851 15.8116 18.3993 15.7797C18.3135 15.7466 18.2433 15.6916 18.1891 15.6149C18.135 15.5381 18.1023 15.4383 18.0914 15.3156C18.0801 15.1902 18.0919 15.0845 18.1262 14.9986C18.1619 14.9111 18.2157 14.8432 18.2878 14.7946C18.3597 14.7461 18.446 14.7173 18.5466 14.7084ZM18.567 14.9158C18.5109 14.9208 18.4656 14.9433 18.4309 14.9832C18.3977 15.023 18.3812 15.0818 18.3815 15.1594L18.7909 15.1229C18.787 15.0798 18.7758 15.042 18.7569 15.0094C18.7397 14.9767 18.7151 14.952 18.6833 14.9351C18.6514 14.9182 18.6128 14.9117 18.567 14.9158ZM19.8703 14.5903C19.9853 14.58 20.08 14.6032 20.155 14.6597C20.2295 14.7149 20.273 14.811 20.2853 14.9482L20.3475 15.6455L20.0556 15.6715L19.9999 15.0466C19.993 14.9696 19.9742 14.9134 19.9434 14.878C19.9125 14.8412 19.8669 14.8255 19.807 14.8309C19.7181 14.8388 19.6601 14.8749 19.6329 14.9392C19.6056 15.0022 19.597 15.0905 19.6072 15.2041L19.652 15.7075L19.3603 15.7335L19.2648 14.664L19.4881 14.6441L19.5395 14.7777L19.5551 14.7763C19.5755 14.7377 19.6016 14.7057 19.6336 14.6805C19.6654 14.654 19.7018 14.6336 19.7426 14.6195C19.7834 14.604 19.8259 14.5943 19.8703 14.5903ZM20.9881 15.608C20.8693 15.6187 20.768 15.581 20.6839 15.495C20.6011 15.4076 20.5517 15.2732 20.5353 15.0917C20.5191 14.9089 20.5446 14.7671 20.612 14.6663C20.6793 14.5655 20.7743 14.5097 20.8971 14.4987C20.948 14.4942 20.9938 14.4973 21.0342 14.5082C21.0745 14.5178 21.1095 14.5331 21.139 14.5541C21.1698 14.5751 21.1963 14.5997 21.2187 14.628L21.2284 14.6271C21.2227 14.6066 21.2153 14.5769 21.2067 14.5382C21.1978 14.4982 21.1916 14.4573 21.1879 14.4155L21.1573 14.0728L21.449 14.0467L21.5818 15.5354L21.3587 15.5553L21.2894 15.4213L21.2776 15.4223C21.2619 15.4527 21.2408 15.4815 21.2143 15.5089C21.189 15.5349 21.158 15.5567 21.1214 15.5745C21.0849 15.5922 21.0404 15.6034 20.9881 15.608ZM21.0692 15.3659C21.1503 15.3587 21.205 15.3301 21.2333 15.2802C21.2618 15.2289 21.2723 15.1556 21.2651 15.0602L21.2623 15.0288C21.253 14.9244 21.2296 14.8462 21.1919 14.7942C21.1557 14.7422 21.0945 14.72 21.0084 14.7277C20.9444 14.7334 20.8967 14.766 20.865 14.8254C20.8334 14.8835 20.8221 14.9648 20.8315 15.0692C20.8408 15.1737 20.8661 15.2511 20.9074 15.3013C20.9487 15.3503 21.0026 15.3718 21.0692 15.3659ZM22.2286 14.378C22.3721 14.3652 22.4846 14.3867 22.566 14.4427C22.6485 14.4972 22.6955 14.5884 22.7069 14.7164L22.7704 15.4293L22.5667 15.4475L22.4969 15.3076L22.4892 15.3083C22.4625 15.3489 22.434 15.383 22.4036 15.4107C22.3744 15.4384 22.3394 15.4592 22.2986 15.4734C22.2592 15.4888 22.2094 15.4991 22.1493 15.5045C22.0867 15.5101 22.0288 15.5034 21.9757 15.4844C21.924 15.464 21.8815 15.4303 21.8482 15.3833C21.815 15.3349 21.7949 15.2722 21.7881 15.1952C21.7779 15.0816 21.8102 14.9944 21.8852 14.9338C21.9599 14.8718 22.0768 14.8311 22.2356 14.8117L22.4211 14.7892L22.4169 14.7422C22.412 14.6861 22.3934 14.6463 22.361 14.6228C22.3299 14.5993 22.2882 14.5898 22.236 14.5945C22.1837 14.5992 22.1335 14.6115 22.0853 14.6316C22.0369 14.6504 21.9889 14.6731 21.9412 14.6998L21.8276 14.5105C21.8825 14.4753 21.9437 14.4462 22.0114 14.423C22.0803 14.3998 22.1528 14.3847 22.2286 14.378ZM22.3232 14.9737C22.2293 14.9847 22.1656 15.0075 22.1317 15.0421C22.0979 15.0767 22.0833 15.1195 22.0879 15.1704C22.092 15.2148 22.1078 15.2456 22.1357 15.2629C22.1633 15.2788 22.1982 15.2849 22.24 15.2812C22.3026 15.2756 22.354 15.2526 22.3937 15.2122C22.4335 15.1705 22.4503 15.1157 22.4442 15.0478L22.4364 14.9597L22.3232 14.9737ZM23.5007 15.149C23.5332 15.1461 23.5643 15.1401 23.5937 15.1308C23.6233 15.1216 23.6526 15.1111 23.6818 15.0993L23.7012 15.3167C23.6711 15.3326 23.6328 15.3472 23.5867 15.3605C23.5418 15.375 23.4921 15.3847 23.4372 15.3896C23.3732 15.3953 23.3148 15.39 23.2621 15.3737C23.2105 15.3572 23.1676 15.3248 23.133 15.2766C23.0996 15.2269 23.0788 15.1564 23.0707 15.065L23.0247 14.5498L22.8856 14.5622L22.8747 14.4388L23.0266 14.3266L23.0906 14.0938L23.2767 14.0772L23.2971 14.3044L23.5967 14.2777L23.6162 14.4971L23.3166 14.5238L23.3625 15.0389C23.3662 15.0794 23.3806 15.1091 23.4059 15.1279C23.4312 15.1453 23.4627 15.1524 23.5007 15.149ZM24.1149 14.2315L24.2102 15.3009L23.9185 15.327L23.823 14.2575L24.1149 14.2315ZM23.9326 13.8252C23.9757 13.8214 24.0138 13.8285 24.0471 13.8466C24.0801 13.8634 24.0991 13.8992 24.104 13.9541C24.1088 14.0076 24.0965 14.0462 24.0669 14.0699C24.0376 14.0936 24.0012 14.1074 23.9581 14.1112C23.9138 14.1152 23.8749 14.1081 23.8417 14.09C23.8098 14.0718 23.7915 14.0359 23.7868 13.9824C23.7819 13.9275 23.7935 13.889 23.8218 13.8667C23.8513 13.843 23.8883 13.8292 23.9326 13.8252ZM25.4389 14.6504C25.4468 14.7392 25.4415 14.8193 25.4229 14.8907C25.4055 14.962 25.3761 15.0239 25.3348 15.0763C25.2945 15.1272 25.2435 15.168 25.1818 15.1985C25.1199 15.2277 25.0485 15.2459 24.9675 15.2531C24.8931 15.2598 24.8229 15.2542 24.7568 15.2364C24.6919 15.2172 24.6344 15.1861 24.5846 15.1432C24.5345 15.0989 24.4934 15.0434 24.4612 14.9765C24.4302 14.9095 24.4107 14.8316 24.4028 14.7428C24.3922 14.624 24.4042 14.5222 24.4387 14.4375C24.4731 14.3515 24.5277 14.2835 24.6022 14.2334C24.6766 14.1833 24.7675 14.1535 24.8746 14.144C24.975 14.135 25.0658 14.1486 25.1466 14.1849C25.2275 14.2211 25.2938 14.2783 25.3455 14.3566C25.3972 14.4336 25.4284 14.5316 25.4389 14.6504ZM24.7005 14.7163C24.7068 14.7868 24.7193 14.8455 24.738 14.8926C24.7578 14.9382 24.7851 14.9719 24.8201 14.9938C24.8547 15.0144 24.8982 15.0224 24.9506 15.0178C25.0028 15.0131 25.0434 14.9976 25.0726 14.9713C25.1032 14.9436 25.1234 14.9056 25.1336 14.8573C25.1449 14.8076 25.1475 14.7475 25.1412 14.677C25.1349 14.6064 25.1219 14.5484 25.102 14.5028C25.0835 14.457 25.0568 14.4239 25.022 14.4033C24.9873 14.3827 24.9439 14.3747 24.8917 14.3794C24.8145 14.3862 24.7608 14.418 24.7302 14.4747C24.701 14.53 24.691 14.6105 24.7005 14.7163ZM26.2381 14.0224C26.353 14.0121 26.4478 14.0352 26.5227 14.0918C26.5974 14.147 26.6408 14.2431 26.653 14.3802L26.7152 15.0775L26.4233 15.1036L26.3676 14.4787C26.3607 14.4017 26.3419 14.3454 26.3111 14.31C26.2802 14.2733 26.2346 14.2576 26.1747 14.263C26.0859 14.2709 26.0278 14.307 26.0008 14.3713C25.9733 14.4342 25.9649 14.5225 25.9749 14.6362L26.0199 15.1395L25.728 15.1656L25.6327 14.0961L25.8559 14.0762L25.9074 14.2098L25.923 14.2084C25.9432 14.1698 25.9693 14.1378 26.0013 14.1126C26.0331 14.086 26.0695 14.0657 26.1103 14.0515C26.1511 14.0361 26.1937 14.0263 26.2381 14.0224ZM27.7332 14.6669C27.7397 14.7387 27.7281 14.8016 27.6988 14.8555C27.6692 14.9082 27.6217 14.9506 27.5561 14.9828C27.4906 15.015 27.4076 15.0355 27.307 15.0445C27.2326 15.0511 27.168 15.0516 27.1135 15.0459C27.0592 15.0416 27.0043 15.0307 26.9488 15.0133L26.9273 14.7723C26.9871 14.7933 27.0511 14.8093 27.1192 14.8204C27.1872 14.8314 27.2468 14.8347 27.2976 14.8301C27.3552 14.825 27.3949 14.8129 27.4169 14.7938C27.4403 14.7746 27.4506 14.7513 27.4482 14.7239C27.4466 14.7056 27.4399 14.6898 27.4281 14.6763C27.4178 14.6628 27.3954 14.6483 27.3611 14.633C27.3268 14.6176 27.2737 14.5986 27.202 14.5761C27.1329 14.5533 27.0756 14.5301 27.03 14.5065C26.9843 14.4816 26.9493 14.4505 26.9248 14.4132C26.9004 14.3746 26.8855 14.3253 26.8802 14.2652C26.8712 14.166 26.9032 14.0881 26.9758 14.0316C27.0485 13.9751 27.1487 13.9412 27.2767 13.9297C27.3432 13.9238 27.4072 13.9247 27.4684 13.9324C27.5296 13.9401 27.5936 13.9561 27.6603 13.9804L27.5908 14.1979C27.5542 14.1853 27.519 14.1747 27.4853 14.1658C27.4515 14.157 27.4188 14.1507 27.3868 14.147C27.3562 14.1431 27.3246 14.1426 27.292 14.1456C27.2489 14.1494 27.2168 14.1582 27.1957 14.1719C27.1758 14.1855 27.1668 14.2041 27.1689 14.2276C27.1705 14.2446 27.177 14.2598 27.1888 14.2732C27.2018 14.2852 27.2245 14.2977 27.2574 14.3105C27.2913 14.3233 27.3409 14.3399 27.4058 14.3605C27.4695 14.3798 27.5247 14.4012 27.5714 14.4247C27.6182 14.4468 27.6552 14.4771 27.6822 14.5155C27.7105 14.5524 27.7276 14.6029 27.7332 14.6669Z" fill="#79749D"/>
    <g filter="url(#filter0_d_8986_50029)">
        <path d="M24.287 4.4375H42.8979C44.7758 4.4375 46.298 5.95978 46.298 7.83761V35.718C46.298 37.5959 44.7758 39.1181 42.8979 39.1181H24.287C22.4091 39.1181 20.8867 37.5959 20.8867 35.718V7.83761C20.8867 5.95978 22.4091 4.4375 24.287 4.4375Z" fill="white" stroke="#C4C9E6" stroke-width="2.03529"/>
        <path d="M41.5153 31.6836C40.2805 31.6836 39.2783 32.6847 39.2783 33.9181C39.2783 35.1517 40.2805 36.1528 41.5153 36.1528C42.75 36.1528 43.7521 35.1517 43.7521 33.9181C43.7521 32.6847 42.75 31.6836 41.5153 31.6836ZM41.0679 35.0355L39.9494 33.9181L40.2648 33.603L41.0679 34.4031L42.7656 32.707L43.0811 33.0243L41.0679 35.0355Z" fill="#1A847C"/>
        <path d="M36.6344 32.5078H24.1066C23.8104 32.5078 23.5703 32.7479 23.5703 33.0441C23.5703 33.3403 23.8104 33.5804 24.1066 33.5804H36.6344C36.9306 33.5804 37.1707 33.3403 37.1707 33.0441C37.1707 32.7479 36.9306 32.5078 36.6344 32.5078Z" fill="#9691B7" fill-opacity="0.5"/>
        <path d="M34.6657 34.2891H23.9278C23.7304 34.2891 23.5703 34.4491 23.5703 34.6466V34.6466C23.5703 34.8441 23.7304 35.0041 23.9278 35.0041H34.6657C34.8632 35.0041 35.0233 34.8441 35.0233 34.6466C35.0233 34.4491 34.8632 34.2891 34.6657 34.2891Z" fill="#9691B7" fill-opacity="0.5"/>
        <path d="M42.898 25.3555H28.9382C28.5433 25.3555 28.2231 25.6756 28.2231 26.0705C28.2231 26.4655 28.5433 26.7856 28.9382 26.7856H42.898C43.2929 26.7856 43.6131 26.4655 43.6131 26.0705C43.6131 25.6756 43.2929 25.3555 42.898 25.3555Z" fill="#F19A48" fill-opacity="0.5"/>
        <path d="M42.898 19.9883H28.9382C28.5433 19.9883 28.2231 20.3084 28.2231 20.7034C28.2231 21.0983 28.5433 21.4184 28.9382 21.4184H42.898C43.2929 21.4184 43.6131 21.0983 43.6131 20.7034C43.6131 20.3084 43.2929 19.9883 42.898 19.9883Z" fill="#E95D53" fill-opacity="0.5"/>
        <path d="M42.898 14.625H28.9382C28.5433 14.625 28.2231 14.9451 28.2231 15.3401C28.2231 15.735 28.5433 16.0551 28.9382 16.0551H42.898C43.2929 16.0551 43.6131 15.735 43.6131 15.3401C43.6131 14.9451 43.2929 14.625 42.898 14.625Z" fill="#E95D53" fill-opacity="0.5"/>
        <path d="M37.1711 16.4141H28.5807C28.3832 16.4141 28.2231 16.5741 28.2231 16.7716V16.7716C28.2231 16.9691 28.3832 17.1291 28.5807 17.1291H37.1711C37.3686 17.1291 37.5287 16.9691 37.5287 16.7716C37.5287 16.5741 37.3686 16.4141 37.1711 16.4141Z" fill="#9691B7"/>
        <path d="M33.5803 10.1523H23.9928C23.7894 10.1523 23.6245 10.3173 23.6245 10.5207V10.5207C23.6245 10.7241 23.7894 10.889 23.9928 10.889H33.5803C33.7837 10.889 33.9486 10.7241 33.9486 10.5207C33.9486 10.3173 33.7837 10.1523 33.5803 10.1523Z" fill="#9691B7" fill-opacity="0.5"/>
        <path d="M37.1711 21.7773H28.5807C28.3832 21.7773 28.2231 21.9374 28.2231 22.1349V22.1349C28.2231 22.3323 28.3832 22.4924 28.5807 22.4924H37.1711C37.3686 22.4924 37.5287 22.3323 37.5287 22.1349C37.5287 21.9374 37.3686 21.7773 37.1711 21.7773Z" fill="#9691B7"/>
        <path d="M37.1711 27.1445H28.5807C28.3832 27.1445 28.2231 27.3046 28.2231 27.5021V27.5021C28.2231 27.6995 28.3832 27.8596 28.5807 27.8596H37.1711C37.3686 27.8596 37.5287 27.6995 37.5287 27.5021C37.5287 27.3046 37.3686 27.1445 37.1711 27.1445Z" fill="#9691B7"/>
        <path d="M25.7177 14.2734H23.9282C23.7306 14.2734 23.5703 14.4337 23.5703 14.6313V16.4183C23.5703 16.616 23.7306 16.7762 23.9282 16.7762H25.7177C25.9154 16.7762 26.0757 16.616 26.0757 16.4183V14.6313C26.0757 14.4337 25.9154 14.2734 25.7177 14.2734Z" fill="#D0CDDF"/>
        <path d="M25.7177 19.6328H23.9282C23.7306 19.6328 23.5703 19.7931 23.5703 19.9907V21.7777C23.5703 21.9753 23.7306 22.1356 23.9282 22.1356H25.7177C25.9154 22.1356 26.0757 21.9753 26.0757 21.7777V19.9907C26.0757 19.7931 25.9154 19.6328 25.7177 19.6328Z" fill="#D0CDDF"/>
        <path d="M25.7177 24.6406H23.9282C23.7306 24.6406 23.5703 24.8009 23.5703 24.9985V26.7855C23.5703 26.9831 23.7306 27.1434 23.9282 27.1434H25.7177C25.9154 27.1434 26.0757 26.9831 26.0757 26.7855V24.9985C26.0757 24.8009 25.9154 24.6406 25.7177 24.6406Z" fill="#D0CDDF"/>
        <path d="M24.908 16.1115L23.8721 15.1002L24.1642 14.815L24.908 15.5391L26.4808 14.0039L26.7729 14.2911L24.908 16.1115Z" fill="#79749D"/>
        <path d="M24.908 21.6467L23.8721 20.6353L24.1642 20.3501L24.908 21.0742L26.4808 19.5391L26.7729 19.8263L24.908 21.6467Z" fill="#79749D"/>
        <path d="M24.908 26.6505L23.8721 25.6392L24.1642 25.3542L24.908 26.0781L26.4808 24.543L26.7729 24.8303L24.908 26.6505Z" fill="#79749D"/>
        <path d="M24.482 7.89281C24.4255 7.89281 24.3751 7.90394 24.3306 7.92624C24.2873 7.94852 24.2506 7.98064 24.2205 8.02258C24.1902 8.06322 24.1674 8.11304 24.1516 8.17204C24.1371 8.23104 24.1299 8.29724 24.1299 8.37066C24.1299 8.4703 24.1417 8.55552 24.1653 8.6263C24.1902 8.69579 24.2289 8.74888 24.2813 8.7856C24.3337 8.8223 24.4007 8.84066 24.482 8.84066C24.5397 8.84066 24.5966 8.8341 24.6531 8.82098C24.7108 8.80788 24.773 8.78952 24.8398 8.76592V9.01566C24.7783 9.04058 24.7173 9.05894 24.6569 9.07074C24.5966 9.08254 24.5291 9.08843 24.4544 9.08843C24.3102 9.08843 24.1909 9.05894 24.0965 8.99994C24.0035 8.93963 23.9346 8.85573 23.8901 8.74823C23.8454 8.63941 23.8232 8.51291 23.8232 8.36869C23.8232 8.2625 23.8377 8.16548 23.8665 8.07764C23.8953 7.9885 23.9372 7.91182 23.9922 7.84758C24.0487 7.78332 24.1174 7.73352 24.1989 7.69812C24.2813 7.66272 24.3758 7.64502 24.482 7.64502C24.5514 7.64502 24.6209 7.6542 24.6904 7.67255C24.7612 7.68959 24.8288 7.71319 24.8929 7.74335L24.7966 7.98523C24.7442 7.96032 24.6911 7.93869 24.6373 7.92033C24.5848 7.90197 24.5332 7.89281 24.482 7.89281ZM25.4077 7.87904C25.4077 7.93148 25.4057 7.98195 25.4017 8.03046C25.399 8.07896 25.3964 8.11304 25.3939 8.13272H25.4096C25.4332 8.096 25.4608 8.06651 25.4922 8.04421C25.5237 8.02061 25.5584 8.00357 25.5963 7.99309C25.6357 7.98129 25.6771 7.97539 25.7203 7.97539C25.7977 7.97539 25.8652 7.98916 25.9229 8.01669C25.9806 8.04421 26.0251 8.08682 26.0565 8.14452C26.0894 8.2022 26.1058 8.27692 26.1058 8.36869V9.06877H25.8126V8.44146C25.8126 8.3641 25.7982 8.30642 25.7694 8.26841C25.7419 8.22907 25.6987 8.20941 25.6396 8.20941C25.5807 8.20941 25.5341 8.22318 25.5 8.2507C25.4673 8.27824 25.4437 8.31822 25.4293 8.37066C25.4149 8.4231 25.4077 8.48734 25.4077 8.56338V9.06877H25.1147V7.57422H25.4077V7.87904ZM26.8494 7.97539C26.9492 7.97539 27.0344 7.9944 27.1051 8.03241C27.1772 8.07043 27.233 8.12551 27.2724 8.19761C27.3116 8.26971 27.3313 8.35821 27.3313 8.46309V8.60467H26.6391C26.6418 8.68726 26.666 8.75215 26.7119 8.79935C26.7591 8.84655 26.824 8.87015 26.9066 8.87015C26.9761 8.87015 27.039 8.86359 27.0953 8.85049C27.1517 8.83607 27.2101 8.81444 27.2703 8.7856V9.01174C27.2179 9.03796 27.1621 9.05697 27.1032 9.06877C27.0455 9.08187 26.9754 9.08843 26.8927 9.08843C26.7853 9.08843 26.6903 9.06877 26.6077 9.02943C26.525 8.98879 26.4601 8.92783 26.413 8.84655C26.3657 8.76527 26.3421 8.66301 26.3421 8.53978C26.3421 8.41392 26.363 8.3097 26.4051 8.2271C26.4483 8.1432 26.5079 8.08028 26.5841 8.03832C26.6601 7.99637 26.7485 7.97539 26.8494 7.97539ZM26.8516 8.18384C26.7951 8.18384 26.748 8.2022 26.7098 8.2389C26.6732 8.27562 26.6516 8.33264 26.6449 8.40998H27.0561C27.0561 8.36672 27.0482 8.32805 27.0323 8.29397C27.0179 8.25988 26.9958 8.23301 26.9655 8.21335C26.9354 8.19367 26.8973 8.18384 26.8516 8.18384ZM28.0055 9.08843C27.8993 9.08843 27.8089 9.06942 27.7342 9.0314C27.6594 8.99206 27.6023 8.93177 27.5631 8.85049C27.5237 8.76921 27.504 8.66498 27.504 8.53781C27.504 8.40671 27.5263 8.29987 27.5708 8.21727C27.6155 8.13467 27.677 8.07372 27.7558 8.03438C27.8356 7.99506 27.9274 7.97539 28.031 7.97539C28.1045 7.97539 28.168 7.9826 28.2218 7.99702C28.2768 8.01145 28.3247 8.02849 28.3653 8.04815L28.2788 8.2743C28.2329 8.25594 28.1896 8.24087 28.149 8.22907C28.1098 8.21727 28.0704 8.21138 28.031 8.21138C27.9798 8.21138 27.9373 8.22383 27.9031 8.24873C27.869 8.27233 27.8435 8.30839 27.8265 8.35689C27.8108 8.40409 27.8029 8.46374 27.8029 8.53584C27.8029 8.60664 27.8114 8.66563 27.8284 8.71283C27.8469 8.75871 27.8731 8.79346 27.9072 8.81706C27.9413 8.83934 27.9825 8.85049 28.031 8.85049C28.0927 8.85049 28.147 8.84263 28.1942 8.82689C28.2415 8.80985 28.2874 8.7869 28.3319 8.75806V9.0078C28.2874 9.03664 28.2401 9.05697 28.1903 9.06877C28.1418 9.08187 28.0802 9.08843 28.0055 9.08843ZM28.8721 8.24284C28.8721 8.28348 28.8701 8.32411 28.8661 8.36475C28.8635 8.40409 28.8603 8.44408 28.8563 8.48472H28.8603C28.8733 8.46636 28.8865 8.448 28.8995 8.42966C28.9139 8.4113 28.9284 8.39294 28.9428 8.37458C28.9572 8.35624 28.9723 8.33853 28.9881 8.32149L29.289 7.99506H29.6193L29.1927 8.46112L29.6449 9.06877H29.3066L28.9978 8.63417L28.8721 8.73446V9.06877H28.5791V7.57422H28.8721V8.24284ZM30.7837 7.99506V9.06877H30.5595L30.5202 8.93111H30.5045C30.4822 8.96781 30.4533 8.99797 30.418 9.02157C30.3839 9.04385 30.3459 9.06024 30.3039 9.07074C30.262 9.08254 30.2187 9.08843 30.1741 9.08843C30.0981 9.08843 30.0311 9.07466 29.9734 9.04714C29.9158 9.0196 29.8713 8.97699 29.8398 8.91932C29.8083 8.86164 29.7927 8.7869 29.7927 8.69512V7.99506H30.0856V8.62237C30.0856 8.69841 30.0993 8.75609 30.1269 8.79543C30.1544 8.83475 30.1983 8.85441 30.2587 8.85441C30.319 8.85441 30.3656 8.84066 30.3983 8.81312C30.4324 8.7856 30.456 8.74561 30.4692 8.69317C30.4836 8.64073 30.4908 8.57648 30.4908 8.50044V7.99506H30.7837ZM31.6887 7.97539C31.8093 7.97539 31.9071 8.02258 31.9818 8.11698C32.0566 8.21006 32.0938 8.34771 32.0938 8.52995C32.0938 8.65186 32.0761 8.75479 32.0407 8.83869C32.0054 8.92129 31.9568 8.98355 31.8953 9.02551C31.8336 9.06745 31.7622 9.08843 31.6809 9.08843C31.6298 9.08843 31.5851 9.08187 31.5471 9.06877C31.5104 9.05565 31.4791 9.03861 31.4527 9.01763C31.4265 8.99665 31.4036 8.97437 31.3839 8.95078H31.3683C31.3734 8.97569 31.3774 9.00191 31.3801 9.02943C31.3827 9.05565 31.3839 9.08187 31.3839 9.10809V9.54072H31.091V7.99506H31.3289L31.3702 8.13467H31.3839C31.4036 8.10583 31.4272 8.07961 31.4548 8.05601C31.4822 8.03111 31.5151 8.01145 31.5531 7.99702C31.5923 7.9826 31.6377 7.97539 31.6887 7.97539ZM31.5944 8.20941C31.5432 8.20941 31.5026 8.21989 31.4724 8.24087C31.4423 8.26185 31.42 8.29397 31.4056 8.33723C31.3925 8.37917 31.3853 8.43228 31.3839 8.49652V8.52798C31.3839 8.59746 31.3904 8.65645 31.4036 8.70497C31.4166 8.75215 31.439 8.78822 31.4704 8.81312C31.5019 8.83804 31.5445 8.85049 31.5983 8.85049C31.6428 8.85049 31.6795 8.83804 31.7084 8.81312C31.7372 8.78822 31.7588 8.7515 31.7733 8.703C31.7877 8.65448 31.7949 8.59549 31.7949 8.52601C31.7949 8.42113 31.7785 8.34247 31.7458 8.29004C31.7144 8.23628 31.6639 8.20941 31.5944 8.20941ZM33.3181 7.66469C33.4991 7.66469 33.6308 7.70401 33.7134 7.78267C33.7973 7.86003 33.8393 7.96688 33.8393 8.10321C33.8393 8.16483 33.83 8.22383 33.8117 8.2802C33.7934 8.33526 33.7627 8.38508 33.7194 8.42966C33.6774 8.47292 33.6216 8.507 33.5522 8.53192C33.4827 8.55682 33.3969 8.56927 33.2945 8.56927H33.1667V9.06877H32.8699V7.66469H33.3181ZM33.3025 7.90853H33.1667V8.32543H33.265C33.3214 8.32543 33.37 8.31822 33.4106 8.3038C33.4512 8.28938 33.4827 8.26644 33.505 8.23498C33.5272 8.2035 33.5384 8.16286 33.5384 8.11304C33.5384 8.04356 33.5195 7.99244 33.4813 7.95967C33.4433 7.92557 33.3837 7.90853 33.3025 7.90853ZM34.3741 9.06877H34.0809V7.57422H34.3741V9.06877ZM35.1207 7.97343C35.2649 7.97343 35.375 8.00489 35.451 8.06781C35.5284 8.12943 35.5671 8.22448 35.5671 8.35295V9.06877H35.3625L35.3056 8.92324H35.2977C35.2676 8.96126 35.2361 8.99273 35.2032 9.01763C35.1717 9.04255 35.1352 9.06024 35.0931 9.07074C35.0525 9.08254 35.002 9.08843 34.9417 9.08843C34.8788 9.08843 34.8218 9.07663 34.7706 9.05303C34.7209 9.02813 34.6815 8.99076 34.6526 8.94094C34.6238 8.88981 34.6094 8.82557 34.6094 8.74823C34.6094 8.63417 34.6493 8.55026 34.7293 8.49652C34.8093 8.44146 34.9292 8.4113 35.0893 8.40606L35.276 8.40015V8.35295C35.276 8.29659 35.2609 8.25529 35.2308 8.22907C35.202 8.20285 35.1614 8.18975 35.1088 8.18975C35.0564 8.18975 35.0054 8.19761 34.9554 8.21335C34.9057 8.22777 34.8559 8.24611 34.806 8.26841L34.7096 8.06978C34.7673 8.03962 34.8309 8.01603 34.9004 7.99899C34.9713 7.98195 35.0446 7.97343 35.1207 7.97343ZM35.1619 8.57518C35.0676 8.5778 35.002 8.59484 34.9653 8.6263C34.9285 8.65777 34.9103 8.69906 34.9103 8.7502C34.9103 8.79476 34.9234 8.82689 34.9496 8.84655C34.9758 8.86491 35.01 8.87409 35.0518 8.87409C35.1148 8.87409 35.1679 8.85573 35.2111 8.81903C35.2544 8.78101 35.276 8.7279 35.276 8.65974V8.57124L35.1619 8.57518ZM36.4766 7.97539C36.5919 7.97539 36.6844 8.00686 36.7539 8.06978C36.8233 8.1314 36.8581 8.23104 36.8581 8.36869V9.06877H36.5652V8.44146C36.5652 8.3641 36.5513 8.30642 36.5239 8.26841C36.4962 8.22907 36.4523 8.20941 36.392 8.20941C36.3028 8.20941 36.242 8.24022 36.2091 8.30183C36.1764 8.36213 36.16 8.44932 36.16 8.56338V9.06877H35.8671V7.99506H36.0911L36.1305 8.13272H36.1463C36.1699 8.096 36.1987 8.06651 36.2328 8.04421C36.2668 8.02061 36.3049 8.00357 36.3468 7.99309C36.3888 7.98129 36.4321 7.97539 36.4766 7.97539Z" fill="#79749D"/>
    </g>
    <defs>
        <filter id="filter0_d_8986_50029" x="14.2777" y="0.622259" width="41.4248" height="50.6973" filterUnits="userSpaceOnUse" color-interpolation-filters="sRGB">
            <feFlood flood-opacity="0" result="BackgroundImageFix"/>
            <feColorMatrix in="SourceAlpha" type="matrix" values="0 0 0 0 0 0 0 0 0 0 0 0 0 0 0 0 0 0 127 0" result="hardAlpha"/>
            <feOffset dx="1.39785" dy="4.19355"/>
            <feGaussianBlur stdDeviation="3.49463"/>
            <feComposite in2="hardAlpha" operator="out"/>
            <feColorMatrix type="matrix" values="0 0 0 0 0.603392 0 0 0 0 0.596215 0 0 0 0 0.641667 0 0 0 0.2 0"/>
            <feBlend mode="normal" in2="BackgroundImageFix" result="effect1_dropShadow_8986_50029"/>
            <feBlend mode="normal" in="SourceGraphic" in2="effect1_dropShadow_8986_50029" result="shape"/>
        </filter>
    </defs>
</svg>
