<svg width="46" height="46" viewBox="0 0 46 46" fill="none" xmlns="http://www.w3.org/2000/svg">
    <mask id="mask0_8978_46021" style="mask-type:luminance" maskUnits="userSpaceOnUse" x="0" y="0" width="46" height="46">
        <path d="M46 0H0V46H46V0Z" fill="white"/>
    </mask>
    <g mask="url(#mask0_8978_46021)">
        <path d="M33.1724 7.51737C23.1119 12.0685 26.9802 13.2671 17.4704 9.28682C-1.05129 11.5001 -3.25055 37.5479 8.40314 42.9019C16.5859 46.6616 21.8936 40.2481 31.182 42.2387C45.1152 45.2245 51.7493 -0.886291 33.1724 7.51737Z" fill="#D3D6E5"/>
        <g filter="url(#filter0_d_8978_46021)">
            <path d="M3.93134 0.195312H24.3758C26.4386 0.195312 28.1108 1.86756 28.1108 3.93037V34.5573C28.1108 36.6201 26.4386 38.2923 24.3758 38.2923H3.93134C1.86853 38.2923 0.196289 36.6201 0.196289 34.5573V3.93037C0.196289 1.86756 1.86853 0.195312 3.93134 0.195312Z" fill="white" stroke="#C4C9E6" stroke-width="0.888892"/>
            <path d="M21.3818 36.0664H9.58612C9.3692 36.0664 9.19336 36.2422 9.19336 36.4592C9.19336 36.6761 9.3692 36.8519 9.58612 36.8519H21.3818C21.5987 36.8519 21.7745 36.6761 21.7745 36.4592C21.7745 36.2422 21.5987 36.0664 21.3818 36.0664Z" fill="#9691B7" fill-opacity="0.5"/>
            <path d="M15.2044 4.24219H3.18173C2.98644 4.24219 2.82812 4.4005 2.82812 4.5958C2.82812 4.79109 2.98644 4.9494 3.18173 4.9494H15.2044C15.3997 4.9494 15.558 4.79109 15.558 4.5958C15.558 4.4005 15.3997 4.24219 15.2044 4.24219Z" fill="#D0CDDF"/>
            <path d="M20.2084 22.5156H8.08325C7.76436 22.5156 7.50586 22.7741 7.50586 23.093V23.093C7.50586 23.4119 7.76436 23.6704 8.08325 23.6704H20.2084C20.5273 23.6704 20.7858 23.4119 20.7858 23.093C20.7858 22.7741 20.5273 22.5156 20.2084 22.5156Z" fill="#D0CDDF"/>
            <path d="M16.7441 27.1367H8.08325C7.76436 27.1367 7.50586 27.3952 7.50586 27.7141V27.7141C7.50586 28.033 7.76436 28.2915 8.08325 28.2915H16.7441C17.063 28.2915 17.3215 28.033 17.3215 27.7141C17.3215 27.3952 17.063 27.1367 16.7441 27.1367Z" fill="#D0CDDF"/>
            <path d="M22.518 31.7539H8.08325C7.76436 31.7539 7.50586 32.0124 7.50586 32.3313V32.3313C7.50586 32.6502 7.76436 32.9087 8.08325 32.9087H22.518C22.8369 32.9087 23.0954 32.6502 23.0954 32.3313C23.0954 32.0124 22.8369 31.7539 22.518 31.7539Z" fill="#D0CDDF"/>
            <path d="M12.7024 7.50391H8.08325C7.76436 7.50391 7.50586 7.76241 7.50586 8.0813V8.0813C7.50586 8.40018 7.76436 8.65869 8.08325 8.65869H12.7024C13.0212 8.65869 13.2797 8.40018 13.2797 8.0813V8.0813C13.2797 7.76241 13.0212 7.50391 12.7024 7.50391Z" fill="#D0CDDF"/>
            <path d="M24.2502 7.50391H19.6311C19.3122 7.50391 19.0537 7.76241 19.0537 8.0813V8.0813C19.0537 8.40018 19.3122 8.65869 19.6311 8.65869H24.2502C24.5691 8.65869 24.8276 8.40018 24.8276 8.0813V8.0813C24.8276 7.76241 24.5691 7.50391 24.2502 7.50391Z" fill="#D0CDDF"/>
            <path d="M12.991 9.23828H7.79455C7.63511 9.23828 7.50586 9.36753 7.50586 9.52698C7.50586 9.68642 7.63511 9.81567 7.79455 9.81567H12.991C13.1505 9.81567 13.2797 9.68642 13.2797 9.52698C13.2797 9.36753 13.1505 9.23828 12.991 9.23828Z" fill="#D0CDDF"/>
            <path d="M11.8363 10.3906H7.79455C7.63511 10.3906 7.50586 10.5199 7.50586 10.6793C7.50586 10.8388 7.63511 10.968 7.79455 10.968H11.8363C11.9957 10.968 12.125 10.8388 12.125 10.6793C12.125 10.5199 11.9957 10.3906 11.8363 10.3906Z" fill="#D0CDDF"/>
            <path d="M24.5389 9.23828H19.3424C19.183 9.23828 19.0537 9.36753 19.0537 9.52698C19.0537 9.68642 19.183 9.81567 19.3424 9.81567H24.5389C24.6983 9.81567 24.8276 9.68642 24.8276 9.52698C24.8276 9.36753 24.6983 9.23828 24.5389 9.23828Z" fill="#D0CDDF"/>
            <path d="M24.7518 13.2773H3.53534C3.14476 13.2773 2.82812 13.594 2.82812 13.9846V18.9351C2.82812 19.3257 3.14476 19.6423 3.53534 19.6423H24.7518C25.1424 19.6423 25.459 19.3257 25.459 18.9351V13.9846C25.459 13.594 25.1424 13.2773 24.7518 13.2773Z" fill="#E8E7F2"/>
            <path d="M16.2658 14.6914H4.95038C4.55979 14.6914 4.24316 15.008 4.24316 15.3986V15.3986C4.24316 15.7892 4.55979 16.1058 4.95038 16.1058H16.2658C16.6564 16.1058 16.973 15.7892 16.973 15.3986C16.973 15.008 16.6564 14.6914 16.2658 14.6914Z" fill="#D0CDDF"/>
            <path d="M18.3051 16.8164H4.46637C4.3431 16.8164 4.24316 16.9163 4.24316 17.0396C4.24316 17.1629 4.3431 17.2628 4.46637 17.2628H18.3051C18.4284 17.2628 18.5283 17.1629 18.5283 17.0396C18.5283 16.9163 18.4284 16.8164 18.3051 16.8164Z" fill="#9691B7"/>
            <path d="M14.2874 17.707H4.46637C4.3431 17.707 4.24316 17.807 4.24316 17.9302C4.24316 18.0535 4.3431 18.1534 4.46637 18.1534H14.2874C14.4107 18.1534 14.5106 18.0535 14.5106 17.9302C14.5106 17.807 14.4107 17.707 14.2874 17.707Z" fill="#9691B7"/>
            <path d="M2.88672 22.0705C2.88672 21.6799 3.20335 21.3633 3.59393 21.3633H6.92846V24.8276H3.59393C3.20335 24.8276 2.88672 24.511 2.88672 24.1204V22.0705Z" fill="#D0CDDF" stroke="#7F7B91" stroke-width="0.319785"/>
            <path d="M2.88672 28.7376C2.88672 29.1282 3.20335 29.4448 3.59393 29.4448H6.92846V25.9805H3.59393C3.20335 25.9805 2.88672 26.2971 2.88672 26.6877V28.7376Z" fill="#D0CDDF" stroke="#7F7B91" stroke-width="0.319785"/>
            <path d="M2.88672 33.3587C2.88672 33.7493 3.20335 34.0659 3.59393 34.0659H6.92846V30.6016H3.59393C3.20335 30.6016 2.88672 30.9182 2.88672 31.3088V33.3587Z" fill="#D0CDDF" stroke="#7F7B91" stroke-width="0.319785"/>
            <path d="M6.92871 21.3633H24.698C25.0885 21.3633 25.4052 21.6799 25.4052 22.0705V24.1204C25.4052 24.511 25.0885 24.8276 24.698 24.8276H6.92871V21.3633Z" stroke="#7F7B91" stroke-width="0.319785"/>
            <path d="M6.92871 29.4448H24.698C25.0885 29.4448 25.4052 29.1282 25.4052 28.7376V26.6877C25.4052 26.2971 25.0885 25.9805 24.698 25.9805H6.92871V29.4448Z" stroke="#7F7B91" stroke-width="0.319785"/>
            <path d="M6.92871 34.0659H24.698C25.0885 34.0659 25.4052 33.7493 25.4052 33.3587V31.3088C25.4052 30.9182 25.0885 30.6016 24.698 30.6016H6.92871V34.0659Z" stroke="#7F7B91" stroke-width="0.319785"/>
            <path d="M2.82812 6.75645C2.82812 6.53932 3.00415 6.36328 3.22129 6.36328H7.07143V11.6315H3.40551C3.08663 11.6315 2.82812 11.373 2.82812 11.0541V6.75645Z" fill="#D0CDDF" stroke="#7F7B91" stroke-width="0.319785"/>
            <path d="M14.1436 6.36328H18.3869V11.6315H14.1436V6.36328Z" fill="#D0CDDF" stroke="#7F7B91" stroke-width="0.319785"/>
            <path d="M7.07227 6.36328H14.1444V11.6315H7.07227V6.36328Z" stroke="#7F7B91" stroke-width="0.319785"/>
            <path d="M18.3877 6.36328H25.0667C25.2838 6.36328 25.4598 6.53932 25.4598 6.75645V11.0541C25.4598 11.373 25.2014 11.6315 24.8825 11.6315H18.3877V6.36328Z" stroke="#7F7B91" stroke-width="0.319785"/>
        </g>
        <g filter="url(#filter1_d_8978_46021)">
            <path d="M25.7844 14.3125H42.5647C44.2579 14.3125 45.6304 15.685 45.6304 17.3781V42.5159C45.6304 44.209 44.2579 45.5815 42.5647 45.5815H25.7844C24.0913 45.5815 22.7188 44.209 22.7188 42.5159V17.3781C22.7188 15.685 24.0913 14.3125 25.7844 14.3125Z" fill="white" stroke="#C4C9E6" stroke-width="0.729581"/>
            <path d="M37.6345 39.8008H26.339C26.072 39.8008 25.8555 40.0173 25.8555 40.2843C25.8555 40.5514 26.072 40.7679 26.339 40.7679H37.6345C37.9015 40.7679 38.118 40.5514 38.118 40.2843C38.118 40.0173 37.9015 39.8008 37.6345 39.8008Z" fill="#9691B7" fill-opacity="0.5"/>
            <path d="M35.8594 41.4102H26.1778C25.9998 41.4102 25.8555 41.5545 25.8555 41.7325C25.8555 41.9106 25.9998 42.0549 26.1778 42.0549H35.8594C36.0375 42.0549 36.1818 41.9106 36.1818 41.7325C36.1818 41.5545 36.0375 41.4102 35.8594 41.4102Z" fill="#9691B7" fill-opacity="0.5"/>
            <path d="M39.4117 17.8164H31.3508C31.1484 17.8164 30.9844 17.9805 30.9844 18.1828C30.9844 18.3852 31.1484 18.5492 31.3508 18.5492H39.4117C39.614 18.5492 39.7781 18.3852 39.7781 18.1828C39.7781 17.9805 39.614 17.8164 39.4117 17.8164Z" fill="#E95D53" fill-opacity="0.5"/>
            <path d="M38.4956 18.9141H31.1676C31.0664 18.9141 30.9844 18.9961 30.9844 19.0973C30.9844 19.1984 31.0664 19.2805 31.1676 19.2805H38.4956C38.5968 19.2805 38.6788 19.1984 38.6788 19.0973C38.6788 18.9961 38.5968 18.9141 38.4956 18.9141Z" fill="#9691B7"/>
            <path d="M38.1292 19.6484H31.1676C31.0664 19.6484 30.9844 19.7305 30.9844 19.8316C30.9844 19.9328 31.0664 20.0148 31.1676 20.0148H38.1292C38.2304 20.0148 38.3124 19.9328 38.3124 19.8316C38.3124 19.7305 38.2304 19.6484 38.1292 19.6484Z" fill="#9691B7"/>
            <path d="M39.2285 20.3789H31.1676C31.0664 20.3789 30.9844 20.4609 30.9844 20.5621C30.9844 20.6633 31.0664 20.7453 31.1676 20.7453H39.2285C39.3296 20.7453 39.4117 20.6633 39.4117 20.5621C39.4117 20.4609 39.3296 20.3789 39.2285 20.3789Z" fill="#9691B7"/>
            <path d="M35.9308 21.1133H31.1676C31.0664 21.1133 30.9844 21.1953 30.9844 21.2965C30.9844 21.3977 31.0664 21.4797 31.1676 21.4797H35.9308C36.032 21.4797 36.114 21.3977 36.114 21.2965C36.114 21.1953 36.032 21.1133 35.9308 21.1133Z" fill="#9691B7"/>
        </g>
        <mask id="mask1_8978_46021" style="mask-type:luminance" maskUnits="userSpaceOnUse" x="25" y="17" width="5" height="5">
            <path d="M29.8851 17.4492H25.4883V21.8461H29.8851V17.4492Z" fill="white"/>
        </mask>
        <g mask="url(#mask1_8978_46021)">
            <path d="M28.9148 20.7486C28.725 20.4188 28.3686 20.1973 27.9615 20.1973H27.4119C27.0049 20.1973 26.6485 20.4188 26.4587 20.7486C26.761 21.0852 27.1989 21.2965 27.6867 21.2965C28.1745 21.2965 28.6125 21.0844 28.9148 20.7486ZM25.4883 19.6477C25.4883 19.0646 25.7199 18.5054 26.1322 18.0931C26.5445 17.6809 27.1037 17.4492 27.6867 17.4492C28.2698 17.4492 28.8289 17.6809 29.2413 18.0931C29.6535 18.5054 29.8851 19.0646 29.8851 19.6477C29.8851 20.2307 29.6535 20.7899 29.2413 21.2022C28.8289 21.6145 28.2698 21.8461 27.6867 21.8461C27.1037 21.8461 26.5445 21.6145 26.1322 21.2022C25.7199 20.7899 25.4883 20.2307 25.4883 19.6477ZM27.6867 19.785C27.8507 19.785 28.008 19.7199 28.1239 19.604C28.2399 19.488 28.305 19.3308 28.305 19.1667C28.305 19.0028 28.2399 18.8455 28.1239 18.7295C28.008 18.6136 27.8507 18.5484 27.6867 18.5484C27.5227 18.5484 27.3655 18.6136 27.2495 18.7295C27.1336 18.8455 27.0684 19.0028 27.0684 19.1667C27.0684 19.3308 27.1336 19.488 27.2495 19.604C27.3655 19.7199 27.5227 19.785 27.6867 19.785Z" fill="#D0CDDF"/>
        </g>
        <path d="M24.7559 26.975C24.7559 26.5703 25.084 26.2422 25.4887 26.2422H42.7097C43.1144 26.2422 43.4425 26.5703 43.4425 26.975V36.1351C43.4425 36.5398 43.1144 36.8679 42.7097 36.8679H25.4887C25.084 36.8679 24.7559 36.5398 24.7559 36.1351V26.975Z" fill="#CAC7DA" fill-opacity="0.15"/>
        <path d="M24.7559 30.4844H43.3951" stroke="#D5D7DE" stroke-width="0.171867" stroke-dasharray="0.23 0.23"/>
        <path d="M24.7559 34.8906H43.3951" stroke="#D5D7DE" stroke-width="0.171867" stroke-dasharray="0.23 0.23"/>
        <path d="M24.7559 32.6094H43.3951" stroke="#D5D7DE" stroke-width="0.171867" stroke-dasharray="0.23 0.23"/>
        <path d="M24.7793 28.1719H43.4424" stroke="#D5D7DE" stroke-width="0.171867" stroke-dasharray="0.23 0.23"/>
        <path d="M24.7559 34.4594C24.7559 34.4594 27.3013 34.5084 28.4501 34.4594C29.599 34.4104 30.0549 31.86 31.4988 31.86C32.9428 31.86 33.1393 34.6695 34.691 34.6695C36.2427 34.6695 36.573 31.7383 37.8831 31.7383C39.1932 31.7383 40.1427 33.6153 40.7166 33.6528C41.2905 33.6903 43.4425 33.6528 43.4425 33.6528" stroke="#D8DBE1" stroke-width="0.343734"/>
        <path fill-rule="evenodd" clip-rule="evenodd" d="M24.7559 33.4231C24.7559 33.4231 27.3013 31.6607 28.4501 31.6176C29.599 31.5744 30.0549 33.1698 31.4988 33.1698C32.9428 33.1698 33.1393 30.5938 34.691 30.5938C36.2427 30.5938 36.2671 28.4414 37.7924 28.4414C39.3178 28.4414 40.1427 31.0892 40.7166 31.1222C41.2905 31.1552 43.4425 31.1222 43.4425 31.1222V36.8687H24.7559V33.4231Z" fill="url(#paint0_linear_8978_46021)"/>
        <path d="M24.7559 33.3879C24.7559 33.3879 27.3013 31.7563 28.4501 31.7119C29.599 31.6675 30.0549 33.3102 31.4988 33.3102C32.9428 33.3102 33.1393 30.6577 34.691 30.6577C36.2427 30.6577 36.3578 28.4414 37.8831 28.4414C39.4084 28.4414 40.1427 31.1678 40.7166 31.2018C41.2905 31.2358 43.4425 31.2018 43.4425 31.2018" stroke="#E95D53" stroke-width="0.343734"/>
        <path d="M38.1113 36.8675V28.9297" stroke="#E95D53" stroke-width="0.171867"/>
        <path d="M38.1124 29.006C38.3643 29.006 38.5685 28.8018 38.5685 28.5499C38.5685 28.298 38.3643 28.0938 38.1124 28.0938C37.8605 28.0938 37.6562 28.298 37.6562 28.5499C37.6562 28.8018 37.8605 29.006 38.1124 29.006Z" fill="white" stroke="#E95D53" stroke-width="0.343734"/>
    </g>
    <defs>
        <filter id="filter0_d_8978_46021" x="-2.69003" y="-1.47099" width="34.9087" height="45.0932" filterUnits="userSpaceOnUse" color-interpolation-filters="sRGB">
            <feFlood flood-opacity="0" result="BackgroundImageFix"/>
            <feColorMatrix in="SourceAlpha" type="matrix" values="0 0 0 0 0 0 0 0 0 0 0 0 0 0 0 0 0 0 127 0" result="hardAlpha"/>
            <feOffset dx="0.610497" dy="1.83149"/>
            <feGaussianBlur stdDeviation="1.52624"/>
            <feComposite in2="hardAlpha" operator="out"/>
            <feColorMatrix type="matrix" values="0 0 0 0 0.603392 0 0 0 0 0.596215 0 0 0 0 0.641667 0 0 0 0.2 0"/>
            <feBlend mode="normal" in2="BackgroundImageFix" result="effect1_dropShadow_8978_46021"/>
            <feBlend mode="normal" in="SourceGraphic" in2="effect1_dropShadow_8978_46021" result="shape"/>
        </filter>
        <filter id="filter1_d_8978_46021" x="20.3492" y="12.9471" width="28.6524" height="37.0069" filterUnits="userSpaceOnUse" color-interpolation-filters="sRGB">
            <feFlood flood-opacity="0" result="BackgroundImageFix"/>
            <feColorMatrix in="SourceAlpha" type="matrix" values="0 0 0 0 0 0 0 0 0 0 0 0 0 0 0 0 0 0 127 0" result="hardAlpha"/>
            <feOffset dx="0.501081" dy="1.50324"/>
            <feGaussianBlur stdDeviation="1.2527"/>
            <feComposite in2="hardAlpha" operator="out"/>
            <feColorMatrix type="matrix" values="0 0 0 0 0.603392 0 0 0 0 0.596215 0 0 0 0 0.641667 0 0 0 0.2 0"/>
            <feBlend mode="normal" in2="BackgroundImageFix" result="effect1_dropShadow_8978_46021"/>
            <feBlend mode="normal" in="SourceGraphic" in2="effect1_dropShadow_8978_46021" result="shape"/>
        </filter>
        <linearGradient id="paint0_linear_8978_46021" x1="38.1034" y1="36.8687" x2="37.6503" y2="28.4622" gradientUnits="userSpaceOnUse">
            <stop stop-color="#CAC7DA" stop-opacity="0"/>
            <stop offset="1" stop-color="#CAC7DA" stop-opacity="0.65"/>
        </linearGradient>
    </defs>
</svg>
