<svg width="239" height="126" viewBox="0 0 239 126" fill="none" xmlns="http://www.w3.org/2000/svg">
<path d="M125.594 13.0352H112.64C85.2894 13.0352 63.1172 35.2074 63.1172 62.5582V75.5121C63.1172 102.863 85.2894 125.035 112.64 125.035H125.594C152.945 125.035 175.117 102.863 175.117 75.5121V62.5582C175.117 35.2074 152.945 13.0352 125.594 13.0352Z" fill="#D3E5E5" stroke="#138375" stroke-width="1.33342" stroke-miterlimit="22.9256"/>
<path fill-rule="evenodd" clip-rule="evenodd" d="M110.081 63.6454C103.67 64.8531 99.37 67.1979 97.6342 73.3132C95.7998 79.7755 97.5365 87.5056 99.4387 93.035C102.608 102.251 112.369 116.206 124.172 109.486C135.769 102.883 146.513 71.5272 129.663 64.797C124.783 62.8476 115.643 62.5976 110.081 63.6454Z" fill="white"/>
<path fill-rule="evenodd" clip-rule="evenodd" d="M109.609 24.4619H125.633C135.441 24.4619 143.465 32.486 143.465 42.2938C143.465 52.1014 135.441 60.1254 125.633 60.1254H109.609C99.802 60.1254 91.7773 52.1014 91.7773 42.2938C91.7773 32.486 99.802 24.4619 109.609 24.4619Z" fill="white"/>
<path fill-rule="evenodd" clip-rule="evenodd" d="M125.633 31.4229H109.609C104.024 31.4229 99.4551 35.9922 99.4551 41.5766V43.0104C99.4551 48.5947 104.024 53.1641 109.609 53.1641H120.486L125.397 57.5945V53.1641H125.633C131.218 53.1641 135.787 48.5947 135.787 43.0104V41.5766C135.787 35.9922 131.218 31.4229 125.633 31.4229Z" fill="#232828"/>
<path d="M119.019 92.9677H116.224C114.758 92.9677 113.57 91.7784 113.57 90.313V86.6774H109.962C108.496 86.6774 107.309 85.4889 107.309 84.0237V81.1921C107.309 79.7267 108.496 78.5393 109.962 78.5393H113.57V74.9037C113.57 73.4364 114.758 72.249 116.224 72.249H119.019C120.484 72.249 121.673 73.4364 121.673 74.9037V78.5393H125.279C126.745 78.5393 127.934 79.7267 127.934 81.1921V84.0237C127.934 85.4889 126.745 86.6774 125.279 86.6774H121.673V90.313C121.673 91.7784 120.484 92.9677 119.019 92.9677Z" fill="#1A837C"/>
<path fill-rule="evenodd" clip-rule="evenodd" d="M124.842 37.8936C126.118 37.8936 127.152 38.928 127.152 40.2042C127.152 41.4805 126.118 42.5147 124.842 42.5147C123.566 42.5147 122.531 41.4805 122.531 40.2042C122.531 38.928 123.566 37.8936 124.842 37.8936Z" fill="white"/>
<path fill-rule="evenodd" clip-rule="evenodd" d="M110.4 37.8936C111.677 37.8936 112.711 38.928 112.711 40.2042C112.711 41.4805 111.677 42.5147 110.4 42.5147C109.124 42.5147 108.09 41.4805 108.09 40.2042C108.09 38.928 109.124 37.8936 110.4 37.8936Z" fill="white"/>
<path fill-rule="evenodd" clip-rule="evenodd" d="M138.32 69.3364C146.047 70.7126 155.12 64.5198 155.115 57.2216C155.112 52.005 157.191 46.35 152.746 49.7515C150.908 51.1571 151.127 51.3369 150.186 53.4552L145.431 64.1509C144.113 67.1144 141.418 68.784 138.32 69.3364Z" fill="white"/>
<path fill-rule="evenodd" clip-rule="evenodd" d="M97.2097 69.1631C89.9514 72.1491 85.62 82.2437 89.5408 88.3992C92.3434 92.7991 93.6239 98.6866 95.5495 93.4307C96.3452 91.2583 96.064 91.2241 95.7217 88.9315L93.9931 77.3549C93.5142 74.1472 94.8927 71.2918 97.2097 69.1631Z" fill="white"/>
<path d="M120.872 45.457C120.061 46.366 118.569 46.925 116.956 46.925C115.326 46.925 113.822 46.3547 113.018 45.4326" stroke="white" stroke-width="0.666709" stroke-miterlimit="22.9256"/>
<path fill-rule="evenodd" clip-rule="evenodd" d="M152.937 49.4106C152.937 50.8222 152.947 52.1449 152.801 53.2745C152.619 54.6753 152.559 55.7369 152.562 57.2262C152.568 59.8124 151.527 61.808 150.46 63.3146C148.51 66.0691 145.15 68.2864 141.929 69.0698C141.354 69.2096 140.863 69.2546 140.365 69.6007C147.072 69.6007 153.987 64.9084 155.065 58.5865C155.272 57.3749 155.108 55.961 155.302 54.633C155.423 53.8055 155.547 52.8997 155.603 51.9835V50.1297C155.57 49.6879 155.51 49.255 155.413 48.8392C153.551 48.3935 154.424 49.0136 152.937 49.4106Z" fill="#F4FAFA"/>
<path fill-rule="evenodd" clip-rule="evenodd" d="M87.9844 82.9337C87.9844 86.0553 89.1504 87.8759 90.3512 89.9C90.9654 90.9354 91.3744 91.8058 91.9208 92.9018C92.3445 93.752 93.0208 95.5048 94.0797 95.5048C94.6985 95.5048 95.4128 94.328 95.4128 93.7906C95.4128 93.2869 95.2975 93.4898 95.0886 93.1625C93.667 90.9358 93.6081 90.3282 92.4264 88.2057C91.0362 85.7091 90.524 85.5627 90.1875 81.8716C89.9064 78.7909 91.5002 74.9443 93.3425 72.4828C94.017 71.5818 94.8741 70.9763 95.4128 70.1719C92.4398 70.9657 87.9844 77.6427 87.9844 82.9337Z" fill="#F4FAFA"/>
<path fill-rule="evenodd" clip-rule="evenodd" d="M173.04 49.4933L155 56L162.038 42.0974C157.805 37.8747 155.342 32.7412 155.342 27.1748C155.342 25.0994 155.7 23.0411 156.401 21.0495C158.669 14.5997 164.27 9.42652 171.025 5.91768C178.77 1.89472 188.009 0 197.095 0C207.609 0 218.618 2.56066 226.918 8.07247C234.045 12.8053 239 19.4398 239 27.1748C239 38.5867 228.443 47.3835 216.36 51.4409C210.232 53.4982 203.697 54.4848 197.095 54.4848C188.765 54.4848 180.373 52.8068 173.04 49.4933Z" fill="#D3E5E5"/>
<path d="M236.998 27.1749C236.998 20.2688 232.692 14.0253 225.67 9.37626C218.488 4.59217 208.269 1.66797 197.096 1.66797C175.064 1.66797 157.348 13.0939 157.348 27.1749C157.348 32.6235 159.898 37.6732 164.37 41.7883L158.787 52.8171L173.152 47.6359C179.856 50.8241 188.154 52.8171 197.096 52.8171C203.8 52.8171 210.024 51.7526 215.612 49.8941C228.222 45.6426 236.998 37.0057 236.998 27.1749Z" fill="#FEFEFE" stroke="#D3E5E5" stroke-width="0.288" stroke-miterlimit="10"/>
<path d="M176.345 24.0352H174.86V20.5482H171.824V24.0352H170.35V16.1812H171.824V19.3492H174.86V16.1812H176.345V24.0352ZM179.523 18.0732V24.0352H178.071V18.0732H179.523ZM178.808 15.7742C179.02 15.7742 179.204 15.8292 179.358 15.9392C179.512 16.0418 179.589 16.2288 179.589 16.5002C179.589 16.7642 179.512 16.9548 179.358 17.0722C179.204 17.1822 179.02 17.2372 178.808 17.2372C178.58 17.2372 178.39 17.1822 178.236 17.0722C178.082 16.9548 178.005 16.7642 178.005 16.5002C178.005 16.2288 178.082 16.0418 178.236 15.9392C178.39 15.8292 178.58 15.7742 178.808 15.7742ZM182.606 22.8802C182.548 23.1368 182.467 23.4155 182.364 23.7162C182.269 24.0095 182.166 24.3028 182.056 24.5962C181.946 24.8968 181.833 25.1828 181.715 25.4542H180.67C180.736 25.1682 180.802 24.8638 180.868 24.5412C180.934 24.2258 180.993 23.9142 181.044 23.6062C181.103 23.2982 181.147 23.0158 181.176 22.7592H182.529L182.606 22.8802ZM189.534 24.0352H186.267V23.2322L187.169 22.8802V17.3472L186.267 16.9842V16.1812H189.534V16.9842L188.643 17.3472V22.8802L189.534 23.2322V24.0352ZM191.99 16.3022C191.931 16.5588 191.851 16.8375 191.748 17.1382C191.653 17.4315 191.55 17.7285 191.44 18.0292C191.33 18.3225 191.216 18.6048 191.099 18.8762H190.054C190.105 18.6635 190.153 18.4398 190.197 18.2052C190.248 17.9705 190.296 17.7358 190.34 17.5012C190.391 17.2592 190.435 17.0282 190.472 16.8082C190.509 16.5808 190.542 16.3718 190.571 16.1812H191.913L191.99 16.3022ZM199.128 17.9632C199.773 17.9632 200.257 18.1355 200.58 18.4802C200.903 18.8248 201.064 19.3822 201.064 20.1522V24.0352H199.623V20.4162C199.623 19.9762 199.55 19.6462 199.403 19.4262C199.256 19.1988 199.029 19.0852 198.721 19.0852C198.296 19.0852 197.995 19.2428 197.819 19.5582C197.643 19.8735 197.555 20.3318 197.555 20.9332V24.0352H196.103V20.4162C196.103 20.1228 196.07 19.8772 196.004 19.6792C195.938 19.4812 195.839 19.3345 195.707 19.2392C195.575 19.1365 195.406 19.0852 195.201 19.0852C194.908 19.0852 194.677 19.1658 194.508 19.3272C194.339 19.4812 194.218 19.7085 194.145 20.0092C194.079 20.3098 194.046 20.6802 194.046 21.1202V24.0352H192.583V18.0732H193.705L193.914 18.8542H193.98C194.09 18.6488 194.226 18.4802 194.387 18.3482C194.556 18.2162 194.746 18.1208 194.959 18.0622C195.179 17.9962 195.406 17.9632 195.641 17.9632C196.059 17.9632 196.407 18.0402 196.686 18.1942C196.972 18.3408 197.192 18.5718 197.346 18.8872H197.423C197.606 18.5645 197.848 18.3298 198.149 18.1832C198.457 18.0365 198.783 17.9632 199.128 17.9632ZM204.521 18.0732H206.083L207.15 21.4392C207.201 21.5785 207.241 21.7178 207.271 21.8572C207.307 21.9965 207.337 22.1358 207.359 22.2752C207.388 22.4145 207.41 22.5538 207.425 22.6932H207.458C207.487 22.5098 207.524 22.3082 207.568 22.0882C207.619 21.8682 207.678 21.6518 207.744 21.4392L208.789 18.0732H210.329L207.964 24.8162C207.824 25.2122 207.648 25.5495 207.436 25.8282C207.23 26.1068 206.977 26.3158 206.677 26.4552C206.383 26.6018 206.031 26.6752 205.621 26.6752C205.452 26.6752 205.302 26.6642 205.17 26.6422C205.045 26.6275 204.935 26.6092 204.84 26.5872V25.4872C204.913 25.5018 205.005 25.5165 205.115 25.5312C205.225 25.5458 205.338 25.5532 205.456 25.5532C205.668 25.5532 205.848 25.5055 205.995 25.4102C206.149 25.3222 206.277 25.1975 206.38 25.0362C206.482 24.8822 206.559 24.7025 206.611 24.4972L206.765 24.0132L204.521 18.0732ZM216.25 21.0432C216.25 21.5418 216.188 21.9818 216.063 22.3632C215.938 22.7445 215.755 23.0708 215.513 23.3422C215.278 23.6062 214.992 23.8078 214.655 23.9472C214.318 24.0792 213.94 24.1452 213.522 24.1452C213.133 24.1452 212.77 24.0792 212.433 23.9472C212.103 23.8078 211.817 23.6062 211.575 23.3422C211.34 23.0708 211.157 22.7445 211.025 22.3632C210.893 21.9818 210.827 21.5418 210.827 21.0432C210.827 20.3832 210.933 19.8258 211.146 19.3712C211.366 18.9092 211.681 18.5608 212.092 18.3262C212.503 18.0842 212.99 17.9632 213.555 17.9632C214.083 17.9632 214.549 18.0842 214.952 18.3262C215.355 18.5608 215.671 18.9092 215.898 19.3712C216.133 19.8258 216.25 20.3832 216.25 21.0432ZM212.312 21.0432C212.312 21.4612 212.356 21.8205 212.444 22.1212C212.532 22.4145 212.664 22.6382 212.84 22.7922C213.023 22.9462 213.258 23.0232 213.544 23.0232C213.83 23.0232 214.061 22.9462 214.237 22.7922C214.42 22.6382 214.552 22.4145 214.633 22.1212C214.721 21.8205 214.765 21.4612 214.765 21.0432C214.765 20.6178 214.721 20.2622 214.633 19.9762C214.545 19.6828 214.409 19.4628 214.226 19.3162C214.05 19.1622 213.819 19.0852 213.533 19.0852C213.1 19.0852 212.789 19.2538 212.598 19.5912C212.407 19.9285 212.312 20.4125 212.312 21.0432ZM222.63 18.0732V24.0352H221.508L221.321 23.2652H221.244C221.127 23.4705 220.977 23.6392 220.793 23.7712C220.61 23.8958 220.408 23.9875 220.188 24.0462C219.968 24.1122 219.741 24.1452 219.506 24.1452C219.096 24.1452 218.74 24.0682 218.439 23.9142C218.139 23.7602 217.904 23.5255 217.735 23.2102C217.574 22.8875 217.493 22.4732 217.493 21.9672V18.0732H218.956V21.6922C218.956 22.1322 219.03 22.4658 219.176 22.6932C219.33 22.9132 219.572 23.0232 219.902 23.0232C220.232 23.0232 220.489 22.9462 220.672 22.7922C220.863 22.6308 220.995 22.3998 221.068 22.0992C221.142 21.7985 221.178 21.4282 221.178 20.9882V18.0732H222.63ZM227.277 17.9632C227.379 17.9632 227.486 17.9668 227.596 17.9742C227.706 17.9815 227.797 17.9962 227.871 18.0182L227.739 19.3052C227.665 19.2905 227.577 19.2795 227.475 19.2722C227.379 19.2575 227.277 19.2502 227.167 19.2502C226.983 19.2502 226.804 19.2868 226.628 19.3602C226.452 19.4262 226.294 19.5288 226.155 19.6682C226.015 19.8002 225.902 19.9725 225.814 20.1852C225.733 20.3978 225.693 20.6508 225.693 20.9442V24.0352H224.23V18.0732H225.352L225.55 19.1072H225.627C225.737 18.8945 225.872 18.7038 226.034 18.5352C226.202 18.3592 226.389 18.2198 226.595 18.1172C226.807 18.0145 227.035 17.9632 227.277 17.9632ZM174.904 38.0352L174.299 35.9562H171.615L171.01 38.0352H169.426L172.066 30.1482H173.837L176.488 38.0352H174.904ZM173.32 32.7222C173.29 32.6048 173.25 32.4655 173.199 32.3042C173.155 32.1355 173.111 31.9632 173.067 31.7872C173.03 31.6112 172.993 31.4462 172.957 31.2922C172.927 31.4682 172.891 31.6442 172.847 31.8202C172.803 31.9888 172.759 32.1502 172.715 32.3042C172.678 32.4582 172.641 32.5975 172.605 32.7222L171.989 34.7462H173.947L173.32 32.7222ZM180.113 38.0352H176.846V37.2322L177.748 36.8802V31.3472L176.846 30.9842V30.1812H180.113V30.9842L179.222 31.3472V36.8802L180.113 37.2322V38.0352ZM190.183 34.0312C190.183 34.9112 190.025 35.6482 189.71 36.2422C189.402 36.8362 188.954 37.2835 188.368 37.5842C187.781 37.8848 187.077 38.0352 186.256 38.0352H184.1V30.1812H186.476C187.238 30.1812 187.898 30.3278 188.456 30.6212C189.013 30.9145 189.438 31.3472 189.732 31.9192C190.032 32.4838 190.183 33.1878 190.183 34.0312ZM188.643 34.0752C188.643 33.4518 188.558 32.9385 188.39 32.5352C188.228 32.1318 187.983 31.8348 187.653 31.6442C187.33 31.4462 186.93 31.3472 186.454 31.3472H185.574V36.8582H186.289C187.081 36.8582 187.671 36.6272 188.06 36.1652C188.448 35.6958 188.643 34.9992 188.643 34.0752ZM196.699 35.0432C196.699 35.5418 196.637 35.9818 196.512 36.3632C196.388 36.7445 196.204 37.0708 195.962 37.3422C195.728 37.6062 195.442 37.8078 195.104 37.9472C194.767 38.0792 194.389 38.1452 193.971 38.1452C193.583 38.1452 193.22 38.0792 192.882 37.9472C192.552 37.8078 192.266 37.6062 192.024 37.3422C191.79 37.0708 191.606 36.7445 191.474 36.3632C191.342 35.9818 191.276 35.5418 191.276 35.0432C191.276 34.3832 191.383 33.8258 191.595 33.3712C191.815 32.9092 192.131 32.5608 192.541 32.3262C192.952 32.0842 193.44 31.9632 194.004 31.9632C194.532 31.9632 194.998 32.0842 195.401 32.3262C195.805 32.5608 196.12 32.9092 196.347 33.3712C196.582 33.8258 196.699 34.3832 196.699 35.0432ZM192.761 35.0432C192.761 35.4612 192.805 35.8205 192.893 36.1212C192.981 36.4145 193.113 36.6382 193.289 36.7922C193.473 36.9462 193.707 37.0232 193.993 37.0232C194.279 37.0232 194.51 36.9462 194.686 36.7922C194.87 36.6382 195.002 36.4145 195.082 36.1212C195.17 35.8205 195.214 35.4612 195.214 35.0432C195.214 34.6178 195.17 34.2622 195.082 33.9762C194.994 33.6828 194.859 33.4628 194.675 33.3162C194.499 33.1622 194.268 33.0852 193.982 33.0852C193.55 33.0852 193.238 33.2538 193.047 33.5912C192.857 33.9285 192.761 34.4125 192.761 35.0432ZM200.352 38.1452C199.802 38.1452 199.325 38.0388 198.922 37.8262C198.526 37.6062 198.218 37.2725 197.998 36.8252C197.785 36.3705 197.679 35.7912 197.679 35.0872C197.679 34.3538 197.796 33.7598 198.031 33.3052C198.273 32.8432 198.603 32.5058 199.021 32.2932C199.446 32.0732 199.926 31.9632 200.462 31.9632C200.799 31.9632 201.114 31.9998 201.408 32.0732C201.708 32.1465 201.958 32.2345 202.156 32.3372L201.716 33.4042C201.518 33.3235 201.32 33.2538 201.122 33.1952C200.924 33.1365 200.726 33.1072 200.528 33.1072C200.227 33.1072 199.978 33.1805 199.78 33.3272C199.582 33.4738 199.428 33.6938 199.318 33.9872C199.215 34.2732 199.164 34.6362 199.164 35.0762C199.164 35.5015 199.215 35.8572 199.318 36.1432C199.428 36.4292 199.582 36.6455 199.78 36.7922C199.978 36.9315 200.22 37.0012 200.506 37.0012C200.792 37.0012 201.056 36.9608 201.298 36.8802C201.547 36.7995 201.782 36.6895 202.002 36.5502V37.7492C201.774 37.8885 201.532 37.9875 201.276 38.0462C201.019 38.1122 200.711 38.1452 200.352 38.1452ZM205.593 37.0342C205.754 37.0342 205.908 37.0195 206.055 36.9902C206.209 36.9535 206.352 36.9132 206.484 36.8692V37.9032C206.33 37.9692 206.143 38.0242 205.923 38.0682C205.703 38.1195 205.457 38.1452 205.186 38.1452C204.848 38.1452 204.548 38.0902 204.284 37.9802C204.02 37.8628 203.811 37.6648 203.657 37.3862C203.51 37.1075 203.437 36.7188 203.437 36.2202V33.1182H202.689V32.5132L203.525 32.0292L203.965 30.7642H204.889V32.0732H206.429V33.1182H204.889V36.2092C204.889 36.4878 204.951 36.6968 205.076 36.8362C205.208 36.9682 205.38 37.0342 205.593 37.0342ZM212.694 35.0432C212.694 35.5418 212.632 35.9818 212.507 36.3632C212.383 36.7445 212.199 37.0708 211.957 37.3422C211.723 37.6062 211.437 37.8078 211.099 37.9472C210.762 38.0792 210.384 38.1452 209.966 38.1452C209.578 38.1452 209.215 38.0792 208.877 37.9472C208.547 37.8078 208.261 37.6062 208.019 37.3422C207.785 37.0708 207.601 36.7445 207.469 36.3632C207.337 35.9818 207.271 35.5418 207.271 35.0432C207.271 34.3832 207.378 33.8258 207.59 33.3712C207.81 32.9092 208.126 32.5608 208.536 32.3262C208.947 32.0842 209.435 31.9632 209.999 31.9632C210.527 31.9632 210.993 32.0842 211.396 32.3262C211.8 32.5608 212.115 32.9092 212.342 33.3712C212.577 33.8258 212.694 34.3832 212.694 35.0432ZM208.756 35.0432C208.756 35.4612 208.8 35.8205 208.888 36.1212C208.976 36.4145 209.108 36.6382 209.284 36.7922C209.468 36.9462 209.702 37.0232 209.988 37.0232C210.274 37.0232 210.505 36.9462 210.681 36.7922C210.865 36.6382 210.997 36.4145 211.077 36.1212C211.165 35.8205 211.209 35.4612 211.209 35.0432C211.209 34.6178 211.165 34.2622 211.077 33.9762C210.989 33.6828 210.854 33.4628 210.67 33.3162C210.494 33.1622 210.263 33.0852 209.977 33.0852C209.545 33.0852 209.233 33.2538 209.042 33.5912C208.852 33.9285 208.756 34.4125 208.756 35.0432ZM217.018 31.9632C217.12 31.9632 217.227 31.9668 217.337 31.9742C217.447 31.9815 217.538 31.9962 217.612 32.0182L217.48 33.3052C217.406 33.2905 217.318 33.2795 217.216 33.2722C217.12 33.2575 217.018 33.2502 216.908 33.2502C216.724 33.2502 216.545 33.2868 216.369 33.3602C216.193 33.4262 216.035 33.5288 215.896 33.6682C215.756 33.8002 215.643 33.9725 215.555 34.1852C215.474 34.3978 215.434 34.6508 215.434 34.9442V38.0352H213.971V32.0732H215.093L215.291 33.1072H215.368C215.478 32.8945 215.613 32.7038 215.775 32.5352C215.943 32.3592 216.13 32.2198 216.336 32.1172C216.548 32.0145 216.776 31.9632 217.018 31.9632Z" fill="#272A3D"/>
</svg>
